<?xml version="1.0" encoding="UTF-8"?> <svg xmlns="http://www.w3.org/2000/svg" id="Object" viewBox="0 0 1106 1053.61"><defs><style>.cls-1{fill:#f3cc30;}.cls-2{fill:#f7db5e;}.cls-3{fill:#edbd31;}</style></defs><title>stars</title><path class="cls-1" d="M576.92,45.47,734.05,363.86a17.75,17.75,0,0,0,13.37,9.71l351.36,51.06a17.75,17.75,0,0,1,9.84,30.27L854.37,702.74a17.75,17.75,0,0,0-5.11,15.71l60,350a17.74,17.74,0,0,1-25.75,18.7L569.26,921.88a17.74,17.74,0,0,0-16.52,0L238.47,1087.1a17.74,17.74,0,0,1-25.75-18.7l60-350a17.75,17.75,0,0,0-5.11-15.71L13.38,454.9a17.75,17.75,0,0,1,9.84-30.27l351.36-51.06A17.75,17.75,0,0,0,388,363.86L545.08,45.47A17.76,17.76,0,0,1,576.92,45.47Z" transform="translate(-8 -35.57)"></path><path class="cls-2" d="M561,119,421,390.25a46.89,46.89,0,0,1-37.39,25.17l-304,27.76,321.22,15a46.89,46.89,0,0,0,46.16-30.57Z" transform="translate(-8 -35.57)"></path><path class="cls-3" d="M219.62,1028.13l-6.9,40.27a17.74,17.74,0,0,0,25.75,18.7L552.74,921.88a17.74,17.74,0,0,1,16.52,0L883.53,1087.1a17.74,17.74,0,0,0,25.75-18.7l-60-350a17.75,17.75,0,0,1,5.11-15.71L1108.62,454.9a17.74,17.74,0,0,0-9.84-30.27l-117.69-17.1C790.75,749.14,499.27,929,219.62,1028.13Z" transform="translate(-8 -35.57)"></path></svg> 