<?xml version="1.0" encoding="utf-8"?>
<!-- Generator: Adobe Illustrator 24.1.2, SVG Export Plug-In . SVG Version: 6.00 Build 0)  -->
<svg version="1.1" id="Object" xmlns="http://www.w3.org/2000/svg" xmlns:xlink="http://www.w3.org/1999/xlink" x="0px" y="0px"
	 viewBox="0 0 1106 1053.6" style="enable-background:new 0 0 1106 1053.6;" xml:space="preserve">
<style type="text/css">
	.st0{fill:#EAEAEA;stroke:#DDDDDD;stroke-miterlimit:10;}
	.st1{fill:#DDDDDD;}
</style>
<path class="st0" d="M568.9,9.9L726,328.3c2.6,5.2,7.6,8.9,13.4,9.7l351.4,51.1c9.7,1.4,16.4,10.4,15,20.1
	c-0.6,3.9-2.4,7.4-5.2,10.1L846.4,667.2c-4.2,4.1-6.1,10-5.1,15.7l60,350c1.7,9.7-4.8,18.8-14.5,20.5c-3.9,0.7-7.8,0-11.3-1.8
	L561.3,886.3c-5.2-2.7-11.3-2.7-16.5,0l-314.3,165.2c-8.7,4.6-19.4,1.2-24-7.4c-1.8-3.5-2.4-7.4-1.8-11.3l60-350
	c1-5.8-0.9-11.6-5.1-15.7L5.4,419.3c-7-6.8-7.2-18.1-0.3-25.1c2.7-2.8,6.3-4.6,10.1-5.2l351.4-51c5.8-0.8,10.8-4.5,13.4-9.7
	L537.1,9.9c4.3-8.8,15-12.4,23.8-8C564.4,3.6,567.2,6.4,568.9,9.9z"/>
<path class="st1" d="M553,83.4L413,354.7c-7.3,14.2-21.4,23.7-37.4,25.2l-304,27.8l321.2,15c20.4,1,39.1-11.4,46.2-30.6L553,83.4z"
	/>
<path class="st1" d="M211.6,992.6l-6.9,40.3c-1.7,9.7,4.8,18.8,14.5,20.5c3.9,0.7,7.8,0,11.3-1.8l314.3-165.2
	c5.2-2.7,11.3-2.7,16.5,0l314.3,165.2c8.7,4.6,19.4,1.2,24-7.4c1.8-3.5,2.4-7.4,1.8-11.3l-60-350c-1-5.8,0.9-11.6,5.1-15.7
	l254.2-247.8c7-6.8,7.2-18.1,0.3-25.1c-2.7-2.8-6.3-4.6-10.2-5.2L973.1,372C782.8,713.6,491.3,893.4,211.6,992.6z"/>
</svg>
