<svg xmlns="http://www.w3.org/2000/svg" xmlns:xlink="http://www.w3.org/1999/xlink" viewBox="0 0 150.77 149.62"><defs><style>.cls-1{fill:#fff300;}.cls-2{fill:url(#radial-gradient);}.cls-3{fill:url(#linear-gradient);}</style><radialGradient id="radial-gradient" cx="300.65" cy="484.07" r="221.04" gradientTransform="matrix(0.6, -0.8, -0.8, -0.6, 371.31, 589.65)" gradientUnits="userSpaceOnUse"><stop offset="0" stop-color="#feca23"/><stop offset="0.18" stop-color="#fcc621"/><stop offset="0.36" stop-color="#f7ba1a"/><stop offset="0.53" stop-color="#efa60e"/><stop offset="0.57" stop-color="#eda10b"/><stop offset="0.98" stop-color="#f15a24"/><stop offset="1" stop-color="#f2943d"/></radialGradient><linearGradient id="linear-gradient" x1="500.59" y1="534.72" x2="594.6" y2="583.89" gradientTransform="translate(832.59 109.46) rotate(136.42)" gradientUnits="userSpaceOnUse"><stop offset="0.01" stop-color="#fb9f2c"/><stop offset="0.68" stop-color="#fee217"/></linearGradient></defs>

<g id="Слой_2" data-name="Слой 2">
<g id="Слой_1-2" data-name="Слой 1">

<path class="cls-1" d="M30.46,133c3.62-16.71-1.15-22.29-17.89-20.53a1.3,1.3,0,0,1-1.19-2.06C21.28,96.92,19,90.2,3,85.67a1.31,1.31,0,0,1-.33-2.37c14.22-8.7,12.6-15.44-.57-25.77-.9-.7.31-2.26,1.43-2.45,16.6-2.83,18.91-9.76,10.9-24.86-.52-1,2.23-2,3.32-1.81C34.44,32,38.29,27.36,36.52,10.62c-.12-1.13,2.88-2,3.8-1.29C53.83,19.22,58.85,17,63.38,1c.31-1.1,3.46-1.38,4.06-.4C76.14,14.82,81.7,15.42,92,2.24c.7-.89,3.64-.78,3.83.34,2.82,16.59,8.22,19.93,23.32,11.92,1-.51,3.39.09,3.16,1.18-3.63,16.7.35,22.72,17.09,21,1.12-.12,2.66.72,2,1.64-9.89,13.5-7.63,20.22,8.41,24.75a1.31,1.31,0,0,1,.33,2.37c-14.22,8.7-14.58,15.78-1.4,26.1a1.31,1.31,0,0,1-.58,2.32c-16.6,2.82-19.68,9.49-11.67,24.59.51,1-1,2.81-2.11,2.58-16.71-3.63-21.61.45-19.84,17.19.12,1.13-2,2.67-2.91,2-13.51-9.89-19.39-8.44-23.92,7.6-.31,1.1-3,2.5-3.63,1.52-8.7-14.22-14.51-15.77-24.84-2.59-.7.89-3.48,1.6-3.67.48-2.82-16.59-8.13-20.75-23.24-12.74A1.3,1.3,0,0,1,30.46,133Z"/>
<path class="cls-2" d="M28.44,133.65c3.62-16.71-1.15-22.29-17.89-20.53a1.3,1.3,0,0,1-1.19-2.06C19.25,97.55,17,90.83,1,86.3a1.3,1.3,0,0,1-.32-2.37C14.85,75.23,15.2,68.16,2,57.83a1.3,1.3,0,0,1,.59-2.31C19.2,52.69,22.29,46,14.28,30.92A1.3,1.3,0,0,1,15.71,29C32.41,32.66,38,27.89,36.23,11.15A1.3,1.3,0,0,1,38.3,10c13.5,9.89,20.22,7.64,24.75-8.41a1.3,1.3,0,0,1,2.37-.32c8.7,14.22,15.78,14.57,26.1,1.39a1.3,1.3,0,0,1,2.31.59c2.83,16.59,9.5,19.68,24.6,11.67a1.3,1.3,0,0,1,1.88,1.43C116.69,33,121.46,38.6,138.2,36.83a1.3,1.3,0,0,1,1.19,2.07c-9.89,13.5-7.63,20.22,8.41,24.75a1.3,1.3,0,0,1,.32,2.37c-14.21,8.7-14.57,15.78-1.39,26.1a1.31,1.31,0,0,1-.59,2.32c-16.59,2.82-19.68,9.49-11.67,24.59a1.3,1.3,0,0,1-1.42,1.88c-16.71-3.62-22.3,1.16-20.53,17.89a1.3,1.3,0,0,1-2.06,1.19C97,130.1,90.23,132.36,85.7,148.4a1.31,1.31,0,0,1-2.37.33c-8.7-14.22-15.77-14.58-26.1-1.4a1.3,1.3,0,0,1-2.31-.59c-2.83-16.59-9.49-19.67-24.6-11.67A1.3,1.3,0,0,1,28.44,133.65Z"/>

<circle class="cls-1" cx="75.83" cy="74.12" r="53.03" transform="translate(-30.2 75.33) rotate(-45)"/>
<circle class="cls-3" cx="74.38" cy="74.98" r="53.03" transform="matrix(0.99, -0.16, 0.16, 0.99, -11.1, 12.95)"/>

</g></g>

</svg>