<svg xmlns="http://www.w3.org/2000/svg" xmlns:xlink="http://www.w3.org/1999/xlink" viewBox="0 0 79.48 79.48"><defs><style>.cls-1{fill:url(#radial-gradient);}.cls-2{fill:url(#radial-gradient-2);}.cls-3{fill:url(#radial-gradient-3);}.cls-4{fill:url(#radial-gradient-4);}.cls-5{fill:url(#radial-gradient-5);}.cls-6{fill:url(#radial-gradient-6);}.cls-7{opacity:0.38;}.cls-8{fill:#603813;}</style><radialGradient id="radial-gradient" cx="51.55" cy="19.17" r="78.14" gradientUnits="userSpaceOnUse"><stop offset="0" stop-color="#ff9970"/><stop offset="0.25" stop-color="#ff5510"/><stop offset="0.79" stop-color="#391204"/></radialGradient><radialGradient id="radial-gradient-2" cx="51.55" cy="19.17" r="78.14" xlink:href="#radial-gradient"/><radialGradient id="radial-gradient-3" cx="55.94" cy="17.78" r="72.74" gradientUnits="userSpaceOnUse"><stop offset="0" stop-color="#e0c3a1"/><stop offset="0.26" stop-color="#f8931c"/><stop offset="1" stop-color="#7c4a0e"/></radialGradient><radialGradient id="radial-gradient-4" cx="51.55" cy="19.17" r="78.14" gradientUnits="userSpaceOnUse"><stop offset="0" stop-color="#551b02"/><stop offset="1" stop-color="#391202"/></radialGradient><radialGradient id="radial-gradient-5" cx="51.55" cy="19.17" r="78.14" gradientUnits="userSpaceOnUse"><stop offset="0" stop-color="#551b02"/><stop offset="0.79" stop-color="#391204"/></radialGradient><radialGradient id="radial-gradient-6" cx="29.84" cy="31.64" r="43.72" gradientUnits="userSpaceOnUse"><stop offset="0" stop-color="#f8931c"/><stop offset="1" stop-color="#7c4a0e"/></radialGradient></defs><g id="Слой_2" data-name="Слой 2"><g id="Слой_1-2" data-name="Слой 1"><path class="cls-1" d="M39.74,79.48A39.74,39.74,0,0,0,39.74,0c-1.05,0-2.08.05-3.11.13a39.74,39.74,0,0,0,3.11,79.35Z"/><path class="cls-2" d="M9.61,32.65c1.72-.44,3.31-1.26,5-1.83a17.16,17.16,0,0,1,12.37.6A6.91,6.91,0,0,1,30.21,34a3.18,3.18,0,0,1-.34,3.87,10.34,10.34,0,0,0-4-.47,3.58,3.58,0,0,0-3,2.29c-.59,2,1.31,3.88,2,5.9C26.18,49.8,22,53.8,21.63,58.22c-.39,4.88,4,9.28,3.36,14.14A9.21,9.21,0,0,1,23.58,76,39.54,39.54,0,0,0,38,79.43a4.3,4.3,0,0,0,1-1.56c.52-1.54-.3-3.24-1.4-4.44A9.76,9.76,0,0,0,34.09,71a17.81,17.81,0,0,1-2.85-1.18c-1.9-1.21-2.64-3.59-3.14-5.78s-.92-4.63,0-6.72c1.48-3.34,5.81-4.44,9.44-3.95s7.05,2.11,10.69,2.5c3,.31,6.39-.1,8.66,1.88,2.9,2.52,2.61,7.93,6.15,9.44,1.34.57,3.08.46,4.26,1.17A39.81,39.81,0,0,0,77.57,51.91a18.16,18.16,0,0,0-2.63-2.63,13,13,0,0,0-9.06-3.09c-2.78.23-5.37,1.56-8.13,2s-6.14-.55-7-3.21c-.57-1.79.19-3.71.27-5.58.19-4.64-4.75-8.74-9.27-7.7-2.3.53-4.74,2.11-6.81,1a7.24,7.24,0,0,1-1.82-1.72,15.54,15.54,0,0,0-13-5C15.49,26.37,11,29,6.41,28.09a1.2,1.2,0,0,1-.66-.29,1.3,1.3,0,0,1-.1-1.19c.67-2.75,1.59-5.82,4.12-7.11a8.67,8.67,0,0,1,3.46-.75c5.17-.28,10.63.65,15.34-1.51,1.24-.57,2.53-1.62,2.41-3-.17-2-2.88-2.41-4.89-2.45a2.62,2.62,0,0,1-1.49-.35,2.36,2.36,0,0,1-.47-2.59C25.56,4.05,31.6,2,36.53,3c2.22.43,4.85,1.21,6.48-.35C41.67.61,39.13.47,36.63.13A39.51,39.51,0,0,0,21,4.7c.19.12.37.25.54.38a3.07,3.07,0,0,1,1.38,2.21,2.76,2.76,0,0,1-1.82,2.33,2.19,2.19,0,0,0-.82,3.07l0,.07a2.22,2.22,0,0,1-2.05,3.35c-3.31-.21-6.61-.48-9.92-.76A39.52,39.52,0,0,0,.57,33C3.61,33,6.68,33.41,9.61,32.65Z"/><path class="cls-3" d="M43,2.6c-1.63,1.56-4.26.78-6.48.35-4.93-1-11,1.1-12.4,5.92a2.36,2.36,0,0,0,.47,2.59,2.62,2.62,0,0,0,1.49.35c2,0,4.72.45,4.89,2.45.12,1.36-1.17,2.41-2.41,3-4.71,2.16-10.17,1.23-15.34,1.51a8.67,8.67,0,0,0-3.46.75c-2.53,1.29-3.45,4.36-4.12,7.11a1.3,1.3,0,0,0,.1,1.19,1.2,1.2,0,0,0,.66.29c4.59.88,9.08-1.72,13.73-2.2a15.54,15.54,0,0,1,13,5A7.24,7.24,0,0,0,35,32.64c2.07,1.13,4.51-.45,6.81-1,4.52-1,9.46,3.06,9.27,7.7-.08,1.87-.84,3.79-.27,5.58.85,2.66,4.23,3.62,7,3.21s5.35-1.73,8.13-2a13,13,0,0,1,9.06,3.09,18.16,18.16,0,0,1,2.63,2.63A39.74,39.74,0,0,0,39.74,0c-1.05,0-2.08.05-3.11.13C39.13.47,41.67.61,43,2.6Z"/><path class="cls-4" d="M56.9,57.73c-2.27-2-5.66-1.57-8.66-1.88-3.64-.39-7.06-2-10.69-2.5s-8,.61-9.44,3.95c-.93,2.09-.52,4.5,0,6.72s1.24,4.57,3.14,5.78A17.81,17.81,0,0,0,34.09,71a9.76,9.76,0,0,1,3.53,2.45c1.1,1.2,1.92,2.9,1.4,4.44a4.3,4.3,0,0,1-1,1.56c.57,0,1.14,0,1.72,0A39.59,39.59,0,0,0,67.31,68.34c-1.18-.71-2.92-.6-4.26-1.17C59.51,65.66,59.8,60.25,56.9,57.73Z"/><path class="cls-5" d="M20.34,12.76l0-.07a2.19,2.19,0,0,1,.82-3.07,2.76,2.76,0,0,0,1.82-2.33,3.07,3.07,0,0,0-1.38-2.21c-.17-.13-.35-.26-.54-.38A39.76,39.76,0,0,0,8.37,15.35c3.31.28,6.61.55,9.92.76A2.22,2.22,0,0,0,20.34,12.76Z"/><path class="cls-6" d="M23.58,76A9.21,9.21,0,0,0,25,72.36c.61-4.86-3.75-9.26-3.36-14.14.35-4.42,4.55-8.42,3.19-12.64-.65-2-2.55-3.86-2-5.9a3.58,3.58,0,0,1,3-2.29,10.34,10.34,0,0,1,4,.47A3.18,3.18,0,0,0,30.21,34,6.91,6.91,0,0,0,27,31.42a17.16,17.16,0,0,0-12.37-.6c-1.67.57-3.26,1.39-5,1.83-2.93.76-6,.34-9,.35A40.42,40.42,0,0,0,0,39.74,39.73,39.73,0,0,0,23.58,76Z"/><g class="cls-7"><path d="M42.27,11.87a2.92,2.92,0,0,0-.17.36,4.78,4.78,0,0,1,8.33,4.57,3.79,3.79,0,0,0,.2-.34,4.77,4.77,0,0,0-8.36-4.59Z"/><path class="cls-8" d="M42,12.41A4.77,4.77,0,0,0,50.34,17,4.77,4.77,0,0,0,42,12.41Z"/></g><g class="cls-7"><path d="M8.06,43.56c-.05.08-.08.16-.12.24a3.21,3.21,0,0,1,5.6,3.07l.14-.22a3.21,3.21,0,0,0-5.62-3.09Z"/><path class="cls-8" d="M7.86,43.92a3.21,3.21,0,1,0,4.31-1.19A3.16,3.16,0,0,0,7.86,43.92Z"/></g><g class="cls-7"><path d="M59.35,26.88l-.06.13a1.79,1.79,0,0,1,3.11,1.71.57.57,0,0,0,.08-.13,1.78,1.78,0,0,0-3.13-1.71Z"/><path class="cls-8" d="M59.24,27.08a1.78,1.78,0,1,0,2.4-.66A1.77,1.77,0,0,0,59.24,27.08Z"/></g><g class="cls-7"><path d="M60,52.28a2.26,2.26,0,0,0-.17.35A4.78,4.78,0,0,1,68.2,57.2a3.79,3.79,0,0,0,.2-.34A4.77,4.77,0,0,0,60,52.28Z"/><path class="cls-8" d="M59.74,52.81A4.78,4.78,0,1,0,66.15,51,4.71,4.71,0,0,0,59.74,52.81Z"/></g></g></g></svg>