<svg xmlns="http://www.w3.org/2000/svg" xmlns:xlink="http://www.w3.org/1999/xlink" viewBox="0 0 98.97 98.97"><defs><style>.cls-1{fill:url(#radial-gradient);}.cls-2{fill:url(#radial-gradient-2);}.cls-3{fill:url(#radial-gradient-3);}.cls-4{fill:url(#radial-gradient-4);}.cls-5{fill:url(#radial-gradient-5);}.cls-6{fill:url(#radial-gradient-6);}.cls-7{fill:url(#radial-gradient-7);}.cls-8{fill:url(#radial-gradient-8);}.cls-9{fill:url(#radial-gradient-9);}.cls-10{fill:url(#radial-gradient-10);}.cls-11{fill:url(#radial-gradient-11);}.cls-12{fill:url(#radial-gradient-12);}</style><radialGradient id="radial-gradient" cx="75.77" cy="24.36" r="117.81" gradientUnits="userSpaceOnUse"><stop offset="0" stop-color="#c2d6e4"/><stop offset="0.27" stop-color="#3089c5"/><stop offset="0.58" stop-color="#00558d"/><stop offset="1" stop-color="#00395e"/></radialGradient><radialGradient id="radial-gradient-2" cx="86.47" cy="2.3" r="122.38" gradientUnits="userSpaceOnUse"><stop offset="0" stop-color="#00558d"/><stop offset="1" stop-color="#001c2f"/></radialGradient><radialGradient id="radial-gradient-3" cx="75.77" cy="24.36" r="117.81" gradientUnits="userSpaceOnUse"><stop offset="0" stop-color="#05131f"/><stop offset="1" stop-color="#001c2f"/></radialGradient><radialGradient id="radial-gradient-4" cx="75.77" cy="24.36" r="117.81" xlink:href="#radial-gradient"/><radialGradient id="radial-gradient-5" cx="75.77" cy="24.36" r="117.81" gradientUnits="userSpaceOnUse"><stop offset="0" stop-color="#f2f2f2"/><stop offset="0.31" stop-color="#3089c5"/><stop offset="0.58" stop-color="#00558d"/><stop offset="1" stop-color="#00395e"/></radialGradient><radialGradient id="radial-gradient-6" cx="75.77" cy="24.36" r="117.81" xlink:href="#radial-gradient-5"/><radialGradient id="radial-gradient-7" cx="75.77" cy="24.36" r="117.8" xlink:href="#radial-gradient"/><radialGradient id="radial-gradient-8" cx="75.77" cy="24.36" r="117.81" xlink:href="#radial-gradient"/><radialGradient id="radial-gradient-9" cx="86.47" cy="2.3" r="122.38" xlink:href="#radial-gradient-2"/><radialGradient id="radial-gradient-10" cx="86.47" cy="2.3" r="122.38" xlink:href="#radial-gradient-2"/><radialGradient id="radial-gradient-11" cx="86.47" cy="2.3" r="122.38" xlink:href="#radial-gradient-2"/><radialGradient id="radial-gradient-12" cx="75.77" cy="24.36" r="117.81" xlink:href="#radial-gradient-3"/></defs><g id="Слой_2" data-name="Слой 2"><g id="Слой_1-2" data-name="Слой 1"><path class="cls-1" d="M96.9,35.31a46.93,46.93,0,0,0-1.77-5,49.19,49.19,0,0,0-6-10.41A49.38,49.38,0,0,0,49.49,0,49.23,49.23,0,0,0,20.12,9.66,49.7,49.7,0,0,0,7.75,22.92,48.94,48.94,0,0,0,3.51,31.2a48.29,48.29,0,0,0-1.7,5.05A50.42,50.42,0,0,0,.55,42.16,49.11,49.11,0,0,0,0,49.49c0,.13,0,.27,0,.41a48.87,48.87,0,0,0,.36,5.58,49.47,49.47,0,0,0,94.7,13.21c.58-1.36,1.1-2.74,1.55-4.15A49.71,49.71,0,0,0,99,49.49,49.52,49.52,0,0,0,96.9,35.31Z"/><path class="cls-2" d="M24.52,76.74c-1.17-.61-2.46-2-1.68-3a29.65,29.65,0,0,0,10.45,2.39c4.57.19,9.15-.68,13.71-.35,2.88.21,5.71.89,8.59,1.08,5.27.36,10.5-.93,15.62-2.21l23.86-6c.58-1.36,1.1-2.74,1.55-4.15A280.34,280.34,0,0,1,2,63.24,49.52,49.52,0,0,0,20.21,89.37a107.08,107.08,0,0,0,22.11,1.34c6.63-.37,13.2-1.57,19.84-1.87,6-.28,12.21.15,18.14-.65A49.42,49.42,0,0,0,89,79.25L64.54,81.13C51,82.18,36.57,83.07,24.52,76.74Z"/><path class="cls-3" d="M71.21,74.64c-5.12,1.28-10.35,2.57-15.62,2.21-2.88-.19-5.71-.87-8.59-1.08-4.56-.33-9.14.54-13.71.35a29.65,29.65,0,0,1-10.45-2.39c-.78,1,.51,2.4,1.68,3,12.05,6.33,26.45,5.44,40,4.39L89,79.25a49.34,49.34,0,0,0,6.07-10.56Z"/><path class="cls-4" d="M77.48,8.68a49.47,49.47,0,0,0-57.36,1A136.34,136.34,0,0,0,36.7,12.1C50.35,13.16,64.06,11.57,77.48,8.68Z"/><path class="cls-5" d="M26,26.06l19.12.86c4.37.2,8.73.39,13.1.24a82.75,82.75,0,0,0,31-7.21,49.75,49.75,0,0,0-4.27-5,396.12,396.12,0,0,1-66.16.52c-1.55-.12-3.13-.26-4.68-.51a49.59,49.59,0,0,0-6.31,8c.39.16.78.33,1.17.48C14.3,25.52,20.21,25.81,26,26.06Z"/><path class="cls-6" d="M24.7,43.14l24.51,2a118,118,0,0,0,16.8.56C76.51,45,87,41.49,96.9,35.31a46.93,46.93,0,0,0-1.77-5c-30.29,4.17-61.06,2.69-91.62.84a48.29,48.29,0,0,0-1.7,5.05l1,.74C9.72,41.89,17.29,42.54,24.7,43.14Z"/><path class="cls-7" d="M.37,55.48A49.66,49.66,0,0,0,2,63.24a280.34,280.34,0,0,0,94.65,1.3,50.07,50.07,0,0,0,1.9-8.43C66,61.55,33.1,59,.37,55.48Z"/><path class="cls-8" d="M42.32,90.71a107.08,107.08,0,0,1-22.11-1.34A49.43,49.43,0,0,0,80.3,88.19c-5.93.8-12.11.37-18.14.65C55.52,89.14,49,90.34,42.32,90.71Z"/><path class="cls-9" d="M84.9,14.94a49.88,49.88,0,0,0-7.42-6.26C64.06,11.57,50.35,13.16,36.7,12.1A136.34,136.34,0,0,1,20.12,9.66,50,50,0,0,0,14.06,15c1.55.25,3.13.39,4.68.51A396.12,396.12,0,0,0,84.9,14.94Z"/><path class="cls-10" d="M95.13,30.36a49.19,49.19,0,0,0-6-10.41,82.75,82.75,0,0,1-31,7.21c-4.37.15-8.73,0-13.1-.24L26,26.06c-5.78-.25-11.69-.54-17.07-2.66-.39-.15-.78-.32-1.17-.48A48.94,48.94,0,0,0,3.51,31.2C34.07,33.05,64.84,34.53,95.13,30.36Z"/><path class="cls-11" d="M96.9,35.31C87,41.49,76.51,45,66,45.68a118,118,0,0,1-16.8-.56l-24.51-2c-7.41-.6-15-1.25-21.89-6.15l-1-.74A50.42,50.42,0,0,0,.55,42.16a117.9,117.9,0,0,0,34.16,9,8.72,8.72,0,0,1,3.12.71,2.84,2.84,0,0,1,1.66,2.54C27,54.12,14,55.82,2.39,51.06A20.92,20.92,0,0,1,0,49.9a48.87,48.87,0,0,0,.36,5.58C33.1,59,66,61.55,98.52,56.11a49.39,49.39,0,0,0-1.62-20.8Z"/><path class="cls-12" d="M39.49,54.37a2.84,2.84,0,0,0-1.66-2.54,8.72,8.72,0,0,0-3.12-.71,117.9,117.9,0,0,1-34.16-9A49.11,49.11,0,0,0,0,49.49c0,.13,0,.27,0,.41a20.92,20.92,0,0,0,2.38,1.16C14,55.82,27,54.12,39.49,54.37Z"/></g></g></svg>