<svg xmlns="http://www.w3.org/2000/svg" xmlns:xlink="http://www.w3.org/1999/xlink" viewBox="0 0 90.47 90.47"><defs><style>.cls-1{fill:url(#radial-gradient);}.cls-2{fill:url(#radial-gradient-2);}.cls-3{fill:url(#radial-gradient-3);}.cls-4{opacity:0.61;}.cls-5,.cls-6{fill:#8a7164;}.cls-5{opacity:0.74;}.cls-7{fill:url(#radial-gradient-4);}.cls-8{fill:url(#radial-gradient-5);}.cls-9{fill:url(#radial-gradient-6);}</style><radialGradient id="radial-gradient" cx="51.23" cy="26.1" r="58.79" gradientUnits="userSpaceOnUse"><stop offset="0" stop-color="#917643"/><stop offset="0.64" stop-color="#806b47"/><stop offset="1" stop-color="#654c1f"/></radialGradient><radialGradient id="radial-gradient-2" cx="63.95" cy="12.59" r="58.78" xlink:href="#radial-gradient"/><radialGradient id="radial-gradient-3" cx="57.95" cy="13.9" r="58.78" gradientUnits="userSpaceOnUse"><stop offset="0.02" stop-color="#f4ead8"/><stop offset="0.25" stop-color="#ffd68e"/><stop offset="0.73" stop-color="#a5833e"/><stop offset="0.93" stop-color="#a47e36"/><stop offset="1" stop-color="#a47c32"/></radialGradient><radialGradient id="radial-gradient-4" cx="72.11" cy="15.47" r="69.49" gradientUnits="userSpaceOnUse"><stop offset="0" stop-color="#c19d59"/><stop offset="1" stop-color="#806b47"/></radialGradient><radialGradient id="radial-gradient-5" cx="72.11" cy="15.47" r="69.49" xlink:href="#radial-gradient-4"/><radialGradient id="radial-gradient-6" cx="56.19" cy="35.83" r="69.49" gradientUnits="userSpaceOnUse"><stop offset="0" stop-color="#917643"/><stop offset="1" stop-color="#302716"/></radialGradient></defs><g id="Слой_2" data-name="Слой 2"><g id="Слой_1-2" data-name="Слой 1"><path class="cls-1" d="M47.59,65.06A8.65,8.65,0,0,0,45,62.35,18,18,0,0,0,40.83,61c-5.51-1.7-8.92-7.1-11.56-12.23S24,38,18.94,35.2a22.18,22.18,0,0,1-4.31-2.49c-2.42-2.17-2.74-5.76-3.27-9a47.89,47.89,0,0,0-1.6-6.56,45.23,45.23,0,0,0,35.47,73.3,46.16,46.16,0,0,0,7.49-.62A33.64,33.64,0,0,0,47.59,65.06Z"/><path class="cls-2" d="M90.47,45.23a45.21,45.21,0,0,0-1.66-12.17,11.71,11.71,0,0,0-2.59,5.27c-.76,3.48-.57,7.18-1.93,10.47-3,7.26-12.21,9.74-17,16a16.25,16.25,0,0,0-.61,18.35,9.36,9.36,0,0,0,1,1.33A45.22,45.22,0,0,0,90.47,45.23Z"/><path class="cls-3" d="M67.3,64.8c4.78-6.26,14-8.74,17-16,1.36-3.29,1.17-7,1.93-10.47a11.71,11.71,0,0,1,2.59-5.27,45.24,45.24,0,0,0-79-15.89,47.89,47.89,0,0,1,1.6,6.56c.53,3.22.85,6.81,3.27,9a22.18,22.18,0,0,0,4.31,2.49c5,2.82,7.7,8.42,10.33,13.55S35.32,59.28,40.83,61A18,18,0,0,1,45,62.35a8.65,8.65,0,0,1,2.57,2.71,33.64,33.64,0,0,1,5.13,24.79,45,45,0,0,0,15-5.37,9.36,9.36,0,0,1-1-1.33A16.25,16.25,0,0,1,67.3,64.8Z"/><g class="cls-4"><circle class="cls-5" cx="63.94" cy="22.47" r="6.69" transform="matrix(1, -0.02, 0.02, 1, -0.37, 1.07)"/><path class="cls-6" d="M70.54,23.86c-.06.18-.14.35-.21.52A6.69,6.69,0,0,0,57.76,20c.05-.18.1-.36.16-.54a6.69,6.69,0,0,1,12.62,4.44Z"/></g><g class="cls-4"><path class="cls-5" d="M31.48,30.84a4.34,4.34,0,1,1-1.42-6A4.34,4.34,0,0,1,31.48,30.84Z"/><path class="cls-6" d="M31.78,30.36l-.21.3a4.34,4.34,0,0,0-7.36-4.54c.05-.11.11-.21.17-.32a4.35,4.35,0,1,1,7.4,4.56Z"/></g><path class="cls-7" d="M67.26,56.69c3.8-1.22,7.52-3.75,8.64-7.59,1.22-4.18-1.05-8.69-4.25-11.65-5-4.63-12.14-6.47-19-6.16a4.72,4.72,0,0,0-3.36,1.13,5,5,0,0,0-.94,3.16c-.18,2.64-.23,5.63,1.62,7.53.78.8,1.83,1.31,2.65,2.08,2.83,2.63,2.34,7.54,5.06,10.28C60.11,57.87,64.05,57.71,67.26,56.69Z"/><path class="cls-8" d="M32.28,14.16c1,1.18,2.89.93,4.46,1,2.54.13,4.88,1.39,7.38,1.87A4.52,4.52,0,0,0,46.54,17a2.82,2.82,0,0,0,1.78-2.47c.06-1.87-1.71-3.25-3.41-4a17.48,17.48,0,0,0-8-1.54,6.43,6.43,0,0,0-4.07,1.32A2.91,2.91,0,0,0,32.28,14.16Z"/><path class="cls-9" d="M3.86,48.62A7.32,7.32,0,0,1,4,45.39a2.46,2.46,0,0,1,2.46-1.74c.92.13,1.7,1,2.53,1.28a2.39,2.39,0,0,1,1.43,1.53A36.19,36.19,0,0,0,30.78,68.93c3,1.25,6.24,2.11,8.9,4s4.69,5.18,3.85,8.34c-3.19.5-6.49.9-9.64.17-3.43-.8-6.42-2.87-9.3-4.9L16.7,71c-3.39-2.39-6.87-4.86-9.1-8.36C5,58.52,4.39,53.47,3.86,48.62Z"/></g></g></svg>