<svg xmlns="http://www.w3.org/2000/svg" xmlns:xlink="http://www.w3.org/1999/xlink" viewBox="0 0 41.81 39.84"><defs><style>.cls-1{fill:url(#radial-gradient);}.cls-2{fill:url(#radial-gradient-2);}.cls-3{fill:url(#radial-gradient-3);}.cls-4{fill:url(#radial-gradient-4);}.cls-5{fill:url(#radial-gradient-5);}.cls-6{fill:url(#radial-gradient-6);}.cls-7{fill:url(#radial-gradient-8);}.cls-8{fill:url(#radial-gradient-9);}.cls-9{fill:url(#radial-gradient-10);}.cls-10{fill:url(#radial-gradient-11);}.cls-11{fill:url(#radial-gradient-12);}.cls-12{fill:url(#radial-gradient-13);}</style><radialGradient id="radial-gradient" cx="27.75" cy="9.25" r="22.61" gradientUnits="userSpaceOnUse"><stop offset="0" stop-color="#d7ac5e"/><stop offset="1" stop-color="#6e5428"/></radialGradient><radialGradient id="radial-gradient-2" cx="27.74" cy="9.24" r="22.61" gradientUnits="userSpaceOnUse"><stop offset="0" stop-color="#b88c58"/><stop offset="1" stop-color="#3d2b14"/></radialGradient><radialGradient id="radial-gradient-3" cx="27.74" cy="9.24" r="22.61" xlink:href="#radial-gradient-2"/><radialGradient id="radial-gradient-4" cx="27.74" cy="9.24" r="22.61" xlink:href="#radial-gradient"/><radialGradient id="radial-gradient-5" cx="27.74" cy="9.24" r="22.61" gradientUnits="userSpaceOnUse"><stop offset="0" stop-color="#d7ac5e"/><stop offset="1" stop-color="#9e7a4b"/></radialGradient><radialGradient id="radial-gradient-6" cx="27.74" cy="9.24" r="22.61" xlink:href="#radial-gradient-2"/><radialGradient id="radial-gradient-8" cx="27.74" cy="9.25" r="22.61" xlink:href="#radial-gradient-2"/><radialGradient id="radial-gradient-9" cx="27.74" cy="9.25" r="22.61" xlink:href="#radial-gradient-2"/><radialGradient id="radial-gradient-10" cx="27.77" cy="9.24" r="22.59" xlink:href="#radial-gradient"/><radialGradient id="radial-gradient-11" cx="27.74" cy="9.25" r="22.61" xlink:href="#radial-gradient-5"/><radialGradient id="radial-gradient-12" cx="27.74" cy="9.24" r="22.61" xlink:href="#radial-gradient-5"/><radialGradient id="radial-gradient-13" cx="27.74" cy="9.24" r="22.61" xlink:href="#radial-gradient-2"/></defs><g id="Слой_2" data-name="Слой 2"><g id="Слой_1-2" data-name="Слой 1"><path class="cls-1" d="M41.14,23.35c0,.06,0,.12,0,.19A.39.39,0,0,0,41.14,23.35Z"/><path class="cls-2" d="M17.15,8.49c5.93-.14,11.81-1,17.7-1.74A19.9,19.9,0,0,0,4.1,7.82,101.69,101.69,0,0,0,17.15,8.49Z"/><path class="cls-3" d="M16.55,9.43a30.75,30.75,0,0,0-5.75-.29c-.9.08-1.79.26-2.69.36a16.66,16.66,0,0,1-5-.21c-.3.47-.58,1-.84,1.46l35.29-.13A15.48,15.48,0,0,0,36.7,9.2,116.92,116.92,0,0,1,16.55,9.43Z"/><path class="cls-4" d="M8.11,9.5c.9-.1,1.79-.28,2.69-.36a30.75,30.75,0,0,1,5.75.29A116.92,116.92,0,0,0,36.7,9.2a19.19,19.19,0,0,0-1.85-2.45c-5.89.72-11.77,1.6-17.7,1.74a101.69,101.69,0,0,1-13-.67q-.54.7-1,1.47A16.66,16.66,0,0,0,8.11,9.5Z"/><path class="cls-5" d="M8.11,9.5c.9-.1,1.79-.28,2.69-.36a30.75,30.75,0,0,1,5.75.29A116.92,116.92,0,0,0,36.7,9.2a19.19,19.19,0,0,0-1.85-2.45c-5.89.72-11.77,1.6-17.7,1.74a101.69,101.69,0,0,1-13-.67q-.54.7-1,1.47A16.66,16.66,0,0,0,8.11,9.5Z"/><path class="cls-6" d="M39.29,15.3a19.37,19.37,0,0,0-1.76-4.68l-35.29.13A19.47,19.47,0,0,0,.46,15.68,41.34,41.34,0,0,0,5,16.51C16.37,18,27.85,15,39.29,15.3Z"/><path class="cls-6" d="M39.29,15.3a19.37,19.37,0,0,0-1.76-4.68l-35.29.13A19.47,19.47,0,0,0,.46,15.68,41.34,41.34,0,0,0,5,16.51C16.37,18,27.85,15,39.29,15.3Z"/><path class="cls-7" d="M9.54,32.53A8.49,8.49,0,0,1,7,32.14a11.32,11.32,0,0,1-2.9-1.94,18.76,18.76,0,0,0-2-1.33,19.9,19.9,0,0,0,34.1,2.47,32.81,32.81,0,0,1-9.69,1.37Q18,33,9.54,32.53Z"/><path class="cls-8" d="M26.62,28.47c3.71.16,7.43.32,11.14.3a19.93,19.93,0,0,0,1.82-5.64c-10.09-.47-20.19-.61-30.29-.75L.14,22.26A19.67,19.67,0,0,0,1,26c5.7,1.56,11.71,1.83,17.63,2.1Z"/><path class="cls-9" d="M41.79,23.59c0,.07,0,.13,0,.2A.44.44,0,0,0,41.79,23.59Z"/><path class="cls-10" d="M26.62,28.47l-8-.35C12.67,27.85,6.66,27.58,1,26a20.8,20.8,0,0,0,1.17,2.85,18.76,18.76,0,0,1,2,1.33A11.32,11.32,0,0,0,7,32.14a8.49,8.49,0,0,0,2.51.39q8.49.45,17,.18a32.81,32.81,0,0,0,9.69-1.37,20,20,0,0,0,1.53-2.57C34.05,28.79,30.33,28.63,26.62,28.47Z"/><path class="cls-11" d="M39.29,15.3C27.85,15,16.37,18,5,16.51a41.34,41.34,0,0,1-4.55-.83c-.14.62-.24,1.25-.32,1.88a80,80,0,0,0,16.51,1c1.57-.08,3.14-.19,4.71-.31a10.55,10.55,0,0,0,3.82-.78c-.7,1.32-2.39,1.71-3.87,1.95-7,1.16-14.17,2.32-21.26,1.82q0,.52.09,1.05l9.15.12c10.1.14,20.2.28,30.29.75a20.05,20.05,0,0,0,.26-3.21A19.54,19.54,0,0,0,39.29,15.3Z"/><path class="cls-12" d="M21.31,19.39c1.48-.24,3.17-.63,3.87-1.95a10.55,10.55,0,0,1-3.82.78c-1.57.12-3.14.23-4.71.31a80,80,0,0,1-16.51-1A20.48,20.48,0,0,0,0,19.92c0,.43,0,.86.05,1.29C7.14,21.71,14.28,20.55,21.31,19.39Z"/></g></g></svg>