<svg xmlns="http://www.w3.org/2000/svg" xmlns:xlink="http://www.w3.org/1999/xlink" viewBox="0 0 123.75 58.22"><defs><style>.cls-1{fill:url(#linear-gradient);}.cls-2{fill:#fff;}.cls-3{fill:url(#radial-gradient);}.cls-4{fill:url(#radial-gradient-2);}.cls-5{fill:url(#radial-gradient-3);}.cls-6{fill:url(#radial-gradient-4);}.cls-7{fill:url(#radial-gradient-5);}.cls-8{fill:url(#radial-gradient-6);}.cls-9{fill:url(#radial-gradient-7);}.cls-10{fill:url(#radial-gradient-8);}.cls-11{fill:url(#radial-gradient-9);}.cls-12{fill:url(#radial-gradient-10);}.cls-13{fill:url(#radial-gradient-11);}.cls-14{fill:url(#radial-gradient-12);}.cls-15{fill:url(#radial-gradient-13);}.cls-16{fill:url(#radial-gradient-14);}.cls-17{fill:url(#radial-gradient-15);}.cls-18{fill:url(#radial-gradient-16);}.cls-19{fill:url(#radial-gradient-17);}.cls-20{fill:url(#radial-gradient-18);}.cls-21{fill:url(#radial-gradient-19);}.cls-22{fill:url(#radial-gradient-20);}.cls-23{fill:url(#radial-gradient-21);}.cls-24{fill:url(#radial-gradient-22);}.cls-25{fill:url(#radial-gradient-23);}.cls-26{fill:url(#radial-gradient-24);}.cls-27{fill:url(#radial-gradient-25);}.cls-28{fill:url(#radial-gradient-26);}.cls-29{fill:url(#radial-gradient-27);}.cls-30{fill:url(#radial-gradient-28);}.cls-31{fill:url(#radial-gradient-29);}.cls-32{fill:url(#radial-gradient-30);}.cls-33{fill:url(#radial-gradient-31);}.cls-34{fill:url(#radial-gradient-32);}.cls-35{fill:url(#radial-gradient-33);}.cls-36{fill:url(#radial-gradient-34);}.cls-37{fill:url(#radial-gradient-35);}.cls-38{fill:url(#radial-gradient-36);}.cls-39{fill:url(#radial-gradient-37);}.cls-40{fill:url(#radial-gradient-38);}.cls-41{fill:url(#radial-gradient-39);}.cls-42{fill:url(#radial-gradient-40);}.cls-43{fill:url(#radial-gradient-41);}.cls-44{fill:url(#radial-gradient-42);}.cls-45{fill:url(#radial-gradient-43);}.cls-46{fill:url(#radial-gradient-44);}.cls-47{fill:url(#radial-gradient-45);}.cls-48{fill:url(#radial-gradient-46);}.cls-49{fill:url(#radial-gradient-47);}.cls-50{fill:url(#radial-gradient-48);}.cls-51{fill:url(#radial-gradient-49);}.cls-52{fill:url(#radial-gradient-50);}.cls-53{fill:url(#radial-gradient-51);}.cls-54{fill:url(#radial-gradient-52);}.cls-55{fill:url(#radial-gradient-53);}.cls-56{fill:url(#radial-gradient-54);}.cls-57{fill:url(#radial-gradient-55);}.cls-58{fill:url(#radial-gradient-56);}.cls-59{fill:url(#radial-gradient-57);}.cls-60{fill:url(#radial-gradient-58);}.cls-61{fill:url(#radial-gradient-59);}.cls-62{fill:url(#radial-gradient-60);}.cls-63{fill:url(#radial-gradient-61);}.cls-64{fill:url(#radial-gradient-62);}.cls-65{fill:url(#radial-gradient-63);}.cls-66{fill:url(#radial-gradient-64);}.cls-67{fill:url(#radial-gradient-65);}.cls-68{fill:url(#radial-gradient-66);}.cls-69{fill:url(#radial-gradient-67);}.cls-70{fill:url(#radial-gradient-68);}.cls-71{fill:url(#radial-gradient-69);}.cls-72{fill:url(#radial-gradient-70);}.cls-73{fill:url(#radial-gradient-71);}.cls-74{fill:url(#radial-gradient-72);}.cls-75{fill:url(#radial-gradient-73);}.cls-76{fill:url(#radial-gradient-74);}.cls-77{fill:url(#radial-gradient-75);}.cls-78{fill:url(#radial-gradient-76);}.cls-79{fill:url(#radial-gradient-77);}.cls-80{fill:url(#radial-gradient-78);}.cls-81{fill:url(#radial-gradient-79);}.cls-82{fill:url(#radial-gradient-80);}.cls-83{fill:url(#radial-gradient-81);}.cls-84{fill:url(#radial-gradient-82);}.cls-85{fill:url(#radial-gradient-83);}.cls-86{fill:url(#radial-gradient-84);}.cls-87{fill:url(#radial-gradient-85);}.cls-88{fill:url(#radial-gradient-86);}.cls-89{fill:url(#radial-gradient-87);}.cls-90{fill:url(#radial-gradient-88);}.cls-91{fill:url(#radial-gradient-89);}.cls-92{fill:url(#radial-gradient-90);}.cls-93{fill:url(#radial-gradient-91);}.cls-94{fill:url(#radial-gradient-92);}.cls-95{fill:url(#radial-gradient-93);}.cls-96{fill:url(#radial-gradient-94);}.cls-97{fill:url(#radial-gradient-95);}.cls-98{fill:url(#radial-gradient-96);}.cls-99{fill:url(#radial-gradient-97);}.cls-100{fill:url(#radial-gradient-98);}.cls-101{fill:url(#radial-gradient-99);}.cls-102{fill:url(#radial-gradient-100);}.cls-103{fill:url(#radial-gradient-101);}.cls-104{fill:url(#radial-gradient-102);}.cls-105{fill:url(#radial-gradient-103);}.cls-106{fill:url(#radial-gradient-104);}.cls-107{fill:url(#radial-gradient-105);}.cls-108{fill:url(#radial-gradient-106);}.cls-109{fill:url(#radial-gradient-107);}.cls-110{fill:url(#radial-gradient-108);}.cls-111{fill:url(#radial-gradient-109);}.cls-112{fill:url(#radial-gradient-110);}.cls-113{fill:url(#radial-gradient-111);}.cls-114{fill:url(#radial-gradient-112);}.cls-115{fill:url(#radial-gradient-113);}.cls-116{fill:url(#radial-gradient-114);}.cls-117{fill:url(#radial-gradient-115);}.cls-118{fill:url(#radial-gradient-116);}.cls-119{fill:url(#radial-gradient-117);}.cls-120{fill:url(#radial-gradient-118);}.cls-121{fill:url(#radial-gradient-119);}.cls-122{fill:url(#radial-gradient-120);}.cls-123{fill:url(#radial-gradient-121);}.cls-124{fill:url(#radial-gradient-122);}.cls-125{fill:url(#radial-gradient-123);}.cls-126{fill:url(#radial-gradient-124);}.cls-127{fill:url(#radial-gradient-125);}.cls-128{fill:url(#radial-gradient-126);}.cls-129{fill:url(#radial-gradient-127);}.cls-130{fill:url(#radial-gradient-128);}.cls-131{fill:url(#radial-gradient-129);}.cls-132{fill:url(#radial-gradient-130);}.cls-133{fill:url(#radial-gradient-131);}.cls-134{fill:url(#radial-gradient-132);}.cls-135{fill:url(#radial-gradient-133);}.cls-136{fill:url(#radial-gradient-134);}.cls-137{fill:url(#radial-gradient-135);}.cls-138{fill:url(#radial-gradient-136);}.cls-139{fill:url(#radial-gradient-137);}.cls-140{fill:url(#radial-gradient-138);}.cls-141{fill:url(#radial-gradient-139);}.cls-142{fill:url(#radial-gradient-140);}.cls-143{fill:url(#radial-gradient-141);}.cls-144{fill:url(#radial-gradient-142);}.cls-145{fill:url(#radial-gradient-143);}.cls-146{fill:url(#radial-gradient-144);}.cls-147{fill:url(#radial-gradient-145);}.cls-148{fill:url(#radial-gradient-146);}.cls-149{fill:url(#radial-gradient-147);}.cls-150{fill:url(#radial-gradient-148);}.cls-151{fill:url(#radial-gradient-149);}.cls-152{fill:url(#radial-gradient-150);}.cls-153{fill:url(#radial-gradient-151);}.cls-154{fill:url(#radial-gradient-152);}.cls-155{fill:url(#radial-gradient-153);}.cls-156{fill:url(#radial-gradient-154);}.cls-157{fill:url(#radial-gradient-155);}.cls-158{fill:url(#radial-gradient-156);}.cls-159{fill:url(#radial-gradient-157);}.cls-160{fill:url(#radial-gradient-158);}.cls-161{fill:url(#radial-gradient-159);}.cls-162{fill:url(#radial-gradient-160);}.cls-163{fill:url(#radial-gradient-161);}.cls-164{fill:url(#radial-gradient-162);}.cls-165{fill:url(#radial-gradient-163);}.cls-166{fill:url(#radial-gradient-164);}.cls-167{fill:url(#radial-gradient-165);}.cls-168{fill:url(#radial-gradient-166);}.cls-169{fill:url(#radial-gradient-167);}.cls-170{fill:url(#radial-gradient-168);}.cls-171{fill:url(#radial-gradient-169);}.cls-172{fill:url(#radial-gradient-170);}.cls-173{fill:url(#radial-gradient-171);}.cls-174{fill:url(#radial-gradient-172);}.cls-175{fill:url(#radial-gradient-173);}.cls-176{fill:url(#radial-gradient-174);}.cls-177{fill:url(#radial-gradient-175);}.cls-178{fill:url(#radial-gradient-176);}.cls-179{fill:url(#radial-gradient-177);}.cls-180{fill:url(#radial-gradient-178);}.cls-181{fill:url(#radial-gradient-179);}.cls-182{fill:url(#radial-gradient-180);}</style><linearGradient id="linear-gradient" y1="29.48" x2="123.75" y2="29.48" gradientUnits="userSpaceOnUse"><stop offset="0" stop-color="#85c4c9"/><stop offset="0.99" stop-color="#a6d5c2"/></linearGradient><radialGradient id="radial-gradient" cx="72.34" cy="14.08" r="45.79" gradientUnits="userSpaceOnUse"><stop offset="0.01" stop-color="#f9fdfd"/><stop offset="0.11" stop-color="#e7f6f8"/><stop offset="0.17" stop-color="#e0f4f6"/><stop offset="1" stop-color="#65c8d0"/></radialGradient><radialGradient id="radial-gradient-2" cx="72.34" cy="14.08" r="45.8" xlink:href="#radial-gradient"/><radialGradient id="radial-gradient-3" cx="72.34" cy="14.1" r="45.84" xlink:href="#radial-gradient"/><radialGradient id="radial-gradient-4" cx="72.34" cy="14.06" r="45.89" xlink:href="#radial-gradient"/><radialGradient id="radial-gradient-5" cx="72.34" cy="14.04" r="45.91" xlink:href="#radial-gradient"/><radialGradient id="radial-gradient-6" cx="72.34" cy="14.1" r="45.84" xlink:href="#radial-gradient"/><radialGradient id="radial-gradient-7" cx="72.34" cy="14.11" r="45.86" xlink:href="#radial-gradient"/><radialGradient id="radial-gradient-8" cx="72.35" cy="14.1" r="45.85" xlink:href="#radial-gradient"/><radialGradient id="radial-gradient-9" cx="61.05" cy="58.22" r="0.28" xlink:href="#radial-gradient"/><radialGradient id="radial-gradient-10" cx="72.34" cy="13.98" r="45.97" xlink:href="#radial-gradient"/><radialGradient id="radial-gradient-11" cx="72.34" cy="14.11" r="45.86" xlink:href="#radial-gradient"/><radialGradient id="radial-gradient-12" cx="72.34" cy="14.11" r="45.85" xlink:href="#radial-gradient"/><radialGradient id="radial-gradient-13" cx="72.34" cy="14.1" r="45.84" xlink:href="#radial-gradient"/><radialGradient id="radial-gradient-14" cx="72.34" cy="14.11" r="45.84" xlink:href="#radial-gradient"/><radialGradient id="radial-gradient-15" cx="72.34" cy="14.11" r="45.84" xlink:href="#radial-gradient"/><radialGradient id="radial-gradient-16" cx="72.34" cy="14.09" r="45.86" xlink:href="#radial-gradient"/><radialGradient id="radial-gradient-17" cx="72.34" cy="14.1" r="45.83" xlink:href="#radial-gradient"/><radialGradient id="radial-gradient-18" cx="72.34" cy="14.14" r="45.81" xlink:href="#radial-gradient"/><radialGradient id="radial-gradient-19" cx="72.34" cy="14.12" r="45.88" xlink:href="#radial-gradient"/><radialGradient id="radial-gradient-20" cx="72.34" cy="13.99" r="45.59" xlink:href="#radial-gradient"/><radialGradient id="radial-gradient-21" cx="72.34" cy="14.09" r="45.81" xlink:href="#radial-gradient"/><radialGradient id="radial-gradient-22" cx="72.34" cy="14.16" r="45.79" xlink:href="#radial-gradient"/><radialGradient id="radial-gradient-23" cx="72.34" cy="14.12" r="45.87" xlink:href="#radial-gradient"/><radialGradient id="radial-gradient-24" cx="72.34" cy="14.07" r="45.88" xlink:href="#radial-gradient"/><radialGradient id="radial-gradient-25" cx="72.34" cy="14.1" r="45.85" xlink:href="#radial-gradient"/><radialGradient id="radial-gradient-26" cx="72.34" cy="14.08" r="45.87" xlink:href="#radial-gradient"/><radialGradient id="radial-gradient-27" cx="72.34" cy="14.09" r="45.86" xlink:href="#radial-gradient"/><radialGradient id="radial-gradient-28" cx="72.35" cy="14.11" r="45.85" xlink:href="#radial-gradient"/><radialGradient id="radial-gradient-29" cx="72.34" cy="14.1" r="45.84" xlink:href="#radial-gradient"/><radialGradient id="radial-gradient-30" cx="72.35" cy="14.12" r="45.83" xlink:href="#radial-gradient"/><radialGradient id="radial-gradient-31" cx="72.34" cy="14.09" r="45.86" xlink:href="#radial-gradient"/><radialGradient id="radial-gradient-32" cx="72.34" cy="14.12" r="45.83" xlink:href="#radial-gradient"/><radialGradient id="radial-gradient-33" cx="72.35" cy="14.11" r="45.85" xlink:href="#radial-gradient"/><radialGradient id="radial-gradient-34" cx="72.34" cy="14.07" r="45.88" xlink:href="#radial-gradient"/><radialGradient id="radial-gradient-35" cx="72.35" cy="14.11" r="45.85" xlink:href="#radial-gradient"/><radialGradient id="radial-gradient-36" cx="72.34" cy="14.03" r="45.91" xlink:href="#radial-gradient"/><radialGradient id="radial-gradient-37" cx="72.34" cy="14.18" r="45.77" xlink:href="#radial-gradient"/><radialGradient id="radial-gradient-38" cx="72.34" cy="14.11" r="45.84" xlink:href="#radial-gradient"/><radialGradient id="radial-gradient-39" cx="72.22" cy="14.11" r="45.73" xlink:href="#radial-gradient"/><radialGradient id="radial-gradient-40" cx="72.34" cy="14.17" r="45.79" xlink:href="#radial-gradient"/><radialGradient id="radial-gradient-41" cx="72.6" cy="14.1" r="46.09" xlink:href="#radial-gradient"/><radialGradient id="radial-gradient-42" cx="72.34" cy="14.11" r="45.84" xlink:href="#radial-gradient"/><radialGradient id="radial-gradient-43" cx="72.23" cy="14.1" r="45.74" xlink:href="#radial-gradient"/><radialGradient id="radial-gradient-44" cx="72.01" cy="14.11" r="45.52" xlink:href="#radial-gradient"/><radialGradient id="radial-gradient-45" cx="72.34" cy="13.98" r="45.59" xlink:href="#radial-gradient"/><radialGradient id="radial-gradient-46" cx="72.36" cy="14.11" r="45.82" xlink:href="#radial-gradient"/><radialGradient id="radial-gradient-47" cx="72.4" cy="14.1" r="45.79" xlink:href="#radial-gradient"/><radialGradient id="radial-gradient-48" cx="72.34" cy="14.1" r="45.83" xlink:href="#radial-gradient"/><radialGradient id="radial-gradient-49" cx="72.37" cy="14.1" r="45.81" xlink:href="#radial-gradient"/><radialGradient id="radial-gradient-50" cx="72.36" cy="14.11" r="45.83" xlink:href="#radial-gradient"/><radialGradient id="radial-gradient-51" cx="72.34" cy="14.11" r="45.84" xlink:href="#radial-gradient"/><radialGradient id="radial-gradient-52" cx="72.25" cy="14.1" r="45.98" xlink:href="#radial-gradient"/><radialGradient id="radial-gradient-53" cx="72.41" cy="14.1" r="45.77" xlink:href="#radial-gradient"/><radialGradient id="radial-gradient-54" cx="72.33" cy="14.1" r="45.87" xlink:href="#radial-gradient"/><radialGradient id="radial-gradient-55" cx="76.52" cy="13.23" r="51.54" gradientUnits="userSpaceOnUse"><stop offset="0" stop-color="#99b9b9"/><stop offset="0.74" stop-color="#178283"/><stop offset="1" stop-color="#122b2b"/></radialGradient><radialGradient id="radial-gradient-56" cx="72.34" cy="14.11" r="45.84" xlink:href="#radial-gradient"/><radialGradient id="radial-gradient-57" cx="72.32" cy="14.1" r="45.88" xlink:href="#radial-gradient"/><radialGradient id="radial-gradient-58" cx="72.37" cy="14.11" r="45.82" xlink:href="#radial-gradient"/><radialGradient id="radial-gradient-59" cx="72.34" cy="14.09" r="45.86" xlink:href="#radial-gradient"/><radialGradient id="radial-gradient-60" cx="76.52" cy="13.23" r="51.54" xlink:href="#radial-gradient-55"/><radialGradient id="radial-gradient-61" cx="72.34" cy="14.11" r="45.84" xlink:href="#radial-gradient"/><radialGradient id="radial-gradient-62" cx="72.34" cy="14.13" r="45.82" xlink:href="#radial-gradient"/><radialGradient id="radial-gradient-63" cx="72.34" cy="14.11" r="45.85" xlink:href="#radial-gradient"/><radialGradient id="radial-gradient-64" cx="72.34" cy="14.12" r="45.89" xlink:href="#radial-gradient"/><radialGradient id="radial-gradient-65" cx="72.34" cy="14.12" r="45.9" xlink:href="#radial-gradient"/><radialGradient id="radial-gradient-66" cx="72.34" cy="14.08" r="45.87" xlink:href="#radial-gradient"/><radialGradient id="radial-gradient-67" cx="72.34" cy="14.1" r="45.82" xlink:href="#radial-gradient"/><radialGradient id="radial-gradient-68" cx="72.34" cy="14.12" r="45.88" xlink:href="#radial-gradient"/><radialGradient id="radial-gradient-69" cx="72.34" cy="14.1" r="45.83" xlink:href="#radial-gradient"/><radialGradient id="radial-gradient-70" cx="62.45" cy="58.2" r="0.09" xlink:href="#radial-gradient"/><radialGradient id="radial-gradient-71" cx="72.37" cy="14.28" r="45.7" xlink:href="#radial-gradient"/><radialGradient id="radial-gradient-72" cx="72.34" cy="14.2" r="45.77" xlink:href="#radial-gradient"/><radialGradient id="radial-gradient-73" cx="72.34" cy="14.07" r="45.89" xlink:href="#radial-gradient"/><radialGradient id="radial-gradient-74" cx="72.39" cy="13.87" r="46.07" xlink:href="#radial-gradient"/><radialGradient id="radial-gradient-75" cx="72.35" cy="14.15" r="45.8" xlink:href="#radial-gradient"/><radialGradient id="radial-gradient-76" cx="72.34" cy="14.17" r="45.77" xlink:href="#radial-gradient"/><radialGradient id="radial-gradient-77" cx="72.34" cy="14.02" r="45.94" xlink:href="#radial-gradient"/><radialGradient id="radial-gradient-78" cx="72.34" cy="14.17" r="45.79" xlink:href="#radial-gradient"/><radialGradient id="radial-gradient-79" cx="72.34" cy="14.01" r="45.93" xlink:href="#radial-gradient"/><radialGradient id="radial-gradient-80" cx="67.97" cy="57.49" r="0" xlink:href="#radial-gradient"/><radialGradient id="radial-gradient-81" cx="72.34" cy="14.27" r="45.69" xlink:href="#radial-gradient"/><radialGradient id="radial-gradient-82" cx="72.34" cy="14.03" r="45.92" xlink:href="#radial-gradient"/><radialGradient id="radial-gradient-83" cx="72.34" cy="14.26" r="45.69" xlink:href="#radial-gradient"/><radialGradient id="radial-gradient-84" cx="72.34" cy="14.03" r="45.92" xlink:href="#radial-gradient"/><radialGradient id="radial-gradient-85" cx="72.35" cy="14.11" r="45.84" xlink:href="#radial-gradient"/><radialGradient id="radial-gradient-86" cx="72.33" cy="13.8" r="46.19" xlink:href="#radial-gradient"/><radialGradient id="radial-gradient-87" cx="72.34" cy="14.09" r="45.86" xlink:href="#radial-gradient"/><radialGradient id="radial-gradient-88" cx="72.34" cy="14.06" r="45.89" xlink:href="#radial-gradient"/><radialGradient id="radial-gradient-89" cx="60.54" cy="58.21" r="0.09" xlink:href="#radial-gradient"/><radialGradient id="radial-gradient-90" cx="72.34" cy="14.02" r="45.93" xlink:href="#radial-gradient"/><radialGradient id="radial-gradient-91" cx="72.34" cy="14.29" r="45.65" xlink:href="#radial-gradient"/><radialGradient id="radial-gradient-92" cx="72.34" cy="13.99" r="45.95" xlink:href="#radial-gradient"/><radialGradient id="radial-gradient-93" cx="72.34" cy="14.47" r="45.5" xlink:href="#radial-gradient"/><radialGradient id="radial-gradient-94" cx="72.35" cy="14.04" r="45.92" xlink:href="#radial-gradient"/><radialGradient id="radial-gradient-95" cx="75.69" cy="7.63" r="55.38" gradientUnits="userSpaceOnUse"><stop offset="0.01" stop-color="#dcf4ea"/><stop offset="0.05" stop-color="#e0f0eb"/><stop offset="0.15" stop-color="#e7ebed"/><stop offset="0.73" stop-color="#44c6c7"/><stop offset="1" stop-color="#005b49"/></radialGradient><radialGradient id="radial-gradient-96" cx="72.38" cy="14.11" r="45.79" xlink:href="#radial-gradient"/><radialGradient id="radial-gradient-97" cx="72.26" cy="14.11" r="45.97" xlink:href="#radial-gradient"/><radialGradient id="radial-gradient-98" cx="72.33" cy="14.11" r="45.85" xlink:href="#radial-gradient"/><radialGradient id="radial-gradient-99" cx="72.2" cy="14.11" r="46.03" xlink:href="#radial-gradient"/><radialGradient id="radial-gradient-100" cx="72.3" cy="14.12" r="45.88" xlink:href="#radial-gradient"/><radialGradient id="radial-gradient-101" cx="72.39" cy="14.11" r="45.78" xlink:href="#radial-gradient"/><radialGradient id="radial-gradient-102" cx="32.35" cy="30.06" r="0.09" xlink:href="#radial-gradient"/><radialGradient id="radial-gradient-103" cx="72.35" cy="14.14" r="45.79" xlink:href="#radial-gradient"/><radialGradient id="radial-gradient-104" cx="72.61" cy="14.12" r="46.09" xlink:href="#radial-gradient"/><radialGradient id="radial-gradient-105" cx="72.58" cy="14.1" r="46.08" xlink:href="#radial-gradient"/><radialGradient id="radial-gradient-106" cx="72.27" cy="14.12" r="45.91" xlink:href="#radial-gradient"/><radialGradient id="radial-gradient-107" cx="72.36" cy="14.1" r="45.83" xlink:href="#radial-gradient"/><radialGradient id="radial-gradient-108" cx="72.48" cy="14.11" r="45.98" xlink:href="#radial-gradient"/><radialGradient id="radial-gradient-109" cx="33.13" cy="35.93" r="0" xlink:href="#radial-gradient"/><radialGradient id="radial-gradient-110" cx="32.35" cy="28.12" r="0.02" xlink:href="#radial-gradient"/><radialGradient id="radial-gradient-111" cx="72.49" cy="14.1" r="45.63" xlink:href="#radial-gradient"/><radialGradient id="radial-gradient-112" cx="32.65" cy="33.43" r="0.01" xlink:href="#radial-gradient"/><radialGradient id="radial-gradient-113" cx="71.88" cy="13.97" r="46.49" xlink:href="#radial-gradient"/><radialGradient id="radial-gradient-114" cx="72.34" cy="14.1" r="45.85" xlink:href="#radial-gradient"/><radialGradient id="radial-gradient-115" cx="72.31" cy="14.18" r="45.77" xlink:href="#radial-gradient"/><radialGradient id="radial-gradient-116" cx="72.41" cy="14.01" r="45.96" xlink:href="#radial-gradient"/><radialGradient id="radial-gradient-117" cx="72.34" cy="14.11" r="45.85" xlink:href="#radial-gradient"/><radialGradient id="radial-gradient-118" cx="72.34" cy="14.12" r="45.83" xlink:href="#radial-gradient"/><radialGradient id="radial-gradient-119" cx="72.34" cy="14.1" r="45.85" xlink:href="#radial-gradient"/><radialGradient id="radial-gradient-120" cx="72.37" cy="14.06" r="45.9" xlink:href="#radial-gradient"/><radialGradient id="radial-gradient-121" cx="72.36" cy="14.1" r="45.86" xlink:href="#radial-gradient"/><radialGradient id="radial-gradient-122" cx="72.34" cy="14.1" r="45.85" xlink:href="#radial-gradient"/><radialGradient id="radial-gradient-123" cx="72.34" cy="14.11" r="45.84" xlink:href="#radial-gradient"/><radialGradient id="radial-gradient-124" cx="72.36" cy="14.12" r="45.84" xlink:href="#radial-gradient"/><radialGradient id="radial-gradient-125" cx="72.34" cy="14.1" r="45.85" xlink:href="#radial-gradient"/><radialGradient id="radial-gradient-126" cx="72.34" cy="14.11" r="45.84" xlink:href="#radial-gradient"/><radialGradient id="radial-gradient-127" cx="72.38" cy="14.02" r="45.93" xlink:href="#radial-gradient"/><radialGradient id="radial-gradient-128" cx="72.38" cy="14.06" r="45.9" xlink:href="#radial-gradient"/><radialGradient id="radial-gradient-129" cx="72.34" cy="14.11" r="45.84" xlink:href="#radial-gradient"/><radialGradient id="radial-gradient-130" cx="72.38" cy="14.18" r="45.81" xlink:href="#radial-gradient"/><radialGradient id="radial-gradient-131" cx="72.35" cy="14.14" r="45.83" xlink:href="#radial-gradient"/><radialGradient id="radial-gradient-132" cx="72.35" cy="14.12" r="45.84" xlink:href="#radial-gradient"/><radialGradient id="radial-gradient-133" cx="72.34" cy="14.12" r="45.83" xlink:href="#radial-gradient"/><radialGradient id="radial-gradient-134" cx="72.39" cy="14.08" r="45.89" xlink:href="#radial-gradient"/><radialGradient id="radial-gradient-135" cx="72.37" cy="14.08" r="45.88" xlink:href="#radial-gradient"/><radialGradient id="radial-gradient-136" cx="71.72" cy="14.34" r="45.27" xlink:href="#radial-gradient"/><radialGradient id="radial-gradient-137" cx="72.34" cy="14.11" r="45.84" xlink:href="#radial-gradient"/><radialGradient id="radial-gradient-138" cx="72.31" cy="13.98" r="45.94" xlink:href="#radial-gradient"/><radialGradient id="radial-gradient-139" cx="72.38" cy="14.09" r="45.88" xlink:href="#radial-gradient"/><radialGradient id="radial-gradient-140" cx="72.34" cy="14.11" r="45.84" xlink:href="#radial-gradient"/><radialGradient id="radial-gradient-141" cx="72.34" cy="14.11" r="45.84" xlink:href="#radial-gradient"/><radialGradient id="radial-gradient-142" cx="72.34" cy="14.09" r="45.85" xlink:href="#radial-gradient"/><radialGradient id="radial-gradient-143" cx="72.34" cy="14.1" r="45.85" xlink:href="#radial-gradient"/><radialGradient id="radial-gradient-144" cx="72.34" cy="14.11" r="45.84" xlink:href="#radial-gradient"/><radialGradient id="radial-gradient-145" cx="72.36" cy="14.12" r="45.84" xlink:href="#radial-gradient"/><radialGradient id="radial-gradient-146" cx="72.34" cy="14.01" r="45.59" xlink:href="#radial-gradient"/><radialGradient id="radial-gradient-147" cx="72.34" cy="14.15" r="45.97" xlink:href="#radial-gradient"/><radialGradient id="radial-gradient-148" cx="66.63" cy="0.46" r="0" xlink:href="#radial-gradient"/><radialGradient id="radial-gradient-149" cx="72.35" cy="13.95" r="45.48" xlink:href="#radial-gradient"/><radialGradient id="radial-gradient-150" cx="72.34" cy="14.33" r="46.34" xlink:href="#radial-gradient"/><radialGradient id="radial-gradient-151" cx="72.34" cy="14.17" r="46" xlink:href="#radial-gradient"/><radialGradient id="radial-gradient-152" cx="72.34" cy="14.08" r="45.75" xlink:href="#radial-gradient"/><radialGradient id="radial-gradient-153" cx="72.34" cy="14.07" r="45.73" xlink:href="#radial-gradient"/><radialGradient id="radial-gradient-154" cx="72.34" cy="14.14" r="45.99" xlink:href="#radial-gradient"/><radialGradient id="radial-gradient-155" cx="72.34" cy="14.11" r="45.86" xlink:href="#radial-gradient"/><radialGradient id="radial-gradient-156" cx="72.34" cy="14.11" r="45.85" xlink:href="#radial-gradient"/><radialGradient id="radial-gradient-157" cx="72.34" cy="14.09" r="45.78" xlink:href="#radial-gradient"/><radialGradient id="radial-gradient-158" cx="72.35" cy="14.22" r="46.08" xlink:href="#radial-gradient"/><radialGradient id="radial-gradient-159" cx="72.34" cy="14.05" r="45.66" xlink:href="#radial-gradient"/><radialGradient id="radial-gradient-160" cx="72.33" cy="14.1" r="45.82" xlink:href="#radial-gradient"/><radialGradient id="radial-gradient-161" cx="72.36" cy="14.09" r="45.86" xlink:href="#radial-gradient"/><radialGradient id="radial-gradient-162" cx="72.34" cy="14.09" r="45.83" xlink:href="#radial-gradient"/><radialGradient id="radial-gradient-163" cx="72.36" cy="14.1" r="45.87" xlink:href="#radial-gradient"/><radialGradient id="radial-gradient-164" cx="72.31" cy="14.1" r="45.78" xlink:href="#radial-gradient"/><radialGradient id="radial-gradient-165" cx="72.19" cy="14.23" r="45.75" xlink:href="#radial-gradient"/><radialGradient id="radial-gradient-166" cx="72.34" cy="14.12" r="45.86" xlink:href="#radial-gradient"/><radialGradient id="radial-gradient-167" cx="72.4" cy="13.9" r="45.61" xlink:href="#radial-gradient"/><radialGradient id="radial-gradient-168" cx="72.36" cy="14.08" r="45.85" xlink:href="#radial-gradient"/><radialGradient id="radial-gradient-169" cx="72.35" cy="14.2" r="46.01" xlink:href="#radial-gradient"/><radialGradient id="radial-gradient-170" cx="72.35" cy="14.12" r="45.88" xlink:href="#radial-gradient"/><radialGradient id="radial-gradient-171" cx="72.34" cy="14.07" r="45.77" xlink:href="#radial-gradient"/><radialGradient id="radial-gradient-172" cx="75.69" cy="7.63" r="55.38" xlink:href="#radial-gradient-95"/><radialGradient id="radial-gradient-173" cx="72.13" cy="14.1" r="45.56" xlink:href="#radial-gradient"/><radialGradient id="radial-gradient-174" cx="75.69" cy="7.63" r="55.38" xlink:href="#radial-gradient-95"/><radialGradient id="radial-gradient-175" cx="75.69" cy="7.63" r="55.38" xlink:href="#radial-gradient-95"/><radialGradient id="radial-gradient-176" cx="75.69" cy="7.63" r="55.38" xlink:href="#radial-gradient-95"/><radialGradient id="radial-gradient-177" cx="75.69" cy="7.63" r="55.38" xlink:href="#radial-gradient-95"/><radialGradient id="radial-gradient-178" cx="76.52" cy="13.23" r="51.54" xlink:href="#radial-gradient-55"/><radialGradient id="radial-gradient-179" cx="72.34" cy="14.11" r="45.85" xlink:href="#radial-gradient-55"/><radialGradient id="radial-gradient-180" cx="76.52" cy="13.23" r="51.54" xlink:href="#radial-gradient-55"/></defs><g id="Слой_2" data-name="Слой 2"><g id="Слой_1-2" data-name="Слой 1"><path class="cls-1" d="M62.19,12.46C28,11.84.17,19,0,28.35S27.39,45.87,61.57,46.5s62-6.49,62.18-15.89S96.36,13.09,62.19,12.46Zm-.55,29.81C36,41.8,16.88,35.72,17,28.66s19.41-12.44,45.1-12,44.76,6.54,44.63,13.61S87.33,42.74,61.64,42.27Z"/><path class="cls-2" d="M62.15,14.54c-32.57-.59-56.86,4.94-57,13.9S29,43.82,61.6,44.42s56.87-5,57-13.9S94.72,15.14,62.15,14.54Zm-.54,29.35c-29.87-.54-53.94-8.67-53.82-15.4s24.48-14,54.35-13.43S116.08,23.74,116,30.47,91.48,44.44,61.61,43.89Z"/><path class="cls-3" d="M56,.51,56.64.4Z"/><path class="cls-4" d="M58.8.12l.62,0Z"/><path class="cls-5" d="M52.48,1.41l.65-.2Z"/><path class="cls-6" d="M64.14,58.1l-.66,0Z"/><path class="cls-7" d="M63.2,58.17l-.62,0Z"/><path class="cls-8" d="M57.71.24l.85-.1Z"/><path class="cls-9" d="M55.12.69l.66-.14Z"/><path class="cls-10" d="M53.31,1.15c.26-.07.52-.15.78-.21C53.83,1,53.57,1.08,53.31,1.15Z"/><path class="cls-11" d="M61.44,58.22h0Z"/><path class="cls-12" d="M62.31,58.21h0Z"/><path class="cls-13" d="M54.12.93,55,.73Z"/><path class="cls-14" d="M65.81.33l.82.13Z"/><path class="cls-15" d="M64.21.13l.54.06Z"/><path class="cls-16" d="M63.39.07l.52,0Z"/><path class="cls-17" d="M65.2,58l-.86.1Z"/><path class="cls-18" d="M68,57.49l-.82.17Z"/><path class="cls-19" d="M65,.22l.63.08Z"/><path class="cls-20" d="M66.93,57.7l-.63.12Z"/><path class="cls-21" d="M59.71.05l.6,0Z"/><path class="cls-22" d="M61.44,0h0Z"/><path class="cls-23" d="M62.53,0l.56,0Z"/><path class="cls-24" d="M66.05,57.86l-.7.1Z"/><path class="cls-25" d="M56.87.36l.8-.12Z"/><path class="cls-26" d="M53.62,57.16,53.06,57Z"/><path class="cls-27" d="M54.34,57.35l-.52-.14Z"/><path class="cls-28" d="M55.06,57.52l-.48-.11Z"/><path class="cls-29" d="M52.91,57l-.65-.21Z"/><path class="cls-30" d="M33.13,35.93q-.29-1.23-.48-2.49Q32.85,34.7,33.13,35.93Z"/><path class="cls-31" d="M32.65,33.42c0-.26-.08-.52-.11-.77C32.57,32.91,32.61,33.16,32.65,33.42Z"/><path class="cls-32" d="M57.29,57.93l-.46-.07Z"/><path class="cls-33" d="M58,58,57.59,58Z"/><path class="cls-34" d="M55.8,57.67l-.47-.09Z"/><path class="cls-35" d="M51.57,1.72l.74-.26Z"/><path class="cls-36" d="M56.54,57.81l-.46-.08Z"/><path class="cls-37" d="M49.13,2.73q.33-.16.66-.3Q49.46,2.57,49.13,2.73Z"/><path class="cls-38" d="M59.59,58.16l-.47,0Z"/><path class="cls-39" d="M58.81,58.1l-.46,0Z"/><path class="cls-40" d="M49.92,2.37c.53-.23,1.06-.44,1.6-.63C51,1.93,50.45,2.14,49.92,2.37Z"/><path class="cls-41" d="M32.52,32.46l-.06-.61Z"/><path class="cls-42" d="M60.41,58.2l-.52,0Z"/><path class="cls-43" d="M32.38,30.76l0-.58Z"/><path class="cls-44" d="M32.33,29.11c0-.32,0-.65,0-1C32.34,28.47,32.33,28.79,32.33,29.11Z"/><path class="cls-45" d="M32.44,31.6c0-.19,0-.38,0-.57C32.41,31.22,32.42,31.41,32.44,31.6Z"/><path class="cls-46" d="M32.34,29.93c0-.27,0-.54,0-.82C32.33,29.39,32.33,29.66,32.34,29.93Z"/><path class="cls-47" d="M60.58,0h0Z"/><path class="cls-48" d="M90.12,34.11c0,.19-.07.38-.1.57C90.05,34.49,90.09,34.3,90.12,34.11Z"/><path class="cls-49" d="M90.41,32c0,.16,0,.32,0,.47C90.37,32.33,90.39,32.17,90.41,32Z"/><path class="cls-50" d="M73.12,2.44l.65.29Z"/><path class="cls-51" d="M90.47,31.3c0,.14,0,.28,0,.42C90.45,31.58,90.46,31.44,90.47,31.3Z"/><path class="cls-52" d="M90.33,32.72c0,.17,0,.34-.07.51C90.28,33.06,90.31,32.89,90.33,32.72Z"/><path class="cls-53" d="M72.29,56.13c-.53.22-1.08.42-1.63.6C71.21,56.55,71.76,56.35,72.29,56.13Z"/><path class="cls-54" d="M90.54,29.85c0,.09,0,.19,0,.29C90.54,30,90.54,29.94,90.54,29.85Z"/><path class="cls-55" d="M90.51,30.58c0,.12,0,.25,0,.37C90.5,30.83,90.51,30.7,90.51,30.58Z"/><path class="cls-56" d="M90.23,33.42c0,.18,0,.36-.08.54C90.18,33.78,90.21,33.6,90.23,33.42Z"/><path class="cls-57" d="M62.9,35.71a34.59,34.59,0,0,0,7.12.07,40.19,40.19,0,0,0,6.9-1.62,26.15,26.15,0,0,0,4.61-1.74,34.92,34.92,0,0,0,4.1-2.75,44.93,44.93,0,0,1,4.82-3c0,.59.08,1.18.09,1.78A29,29,0,0,0,82.66,9.18q-2.39.75-4.82,1.32a66.88,66.88,0,0,1-7.31,1.27A65.84,65.84,0,0,1,41.26,8.55L41,8.44a28.47,28.47,0,0,0-3.49,4.17c.23-.33.46-.67.71-1,9.49,5.81,26.52,12,46.39-.19a28.22,28.22,0,0,1,2.59,4A73.37,73.37,0,0,1,78,18.68c-5.92,1.75-12,3.33-18.12,3.45-8.47.16-16.79-2.46-24.37-6.27a28.59,28.59,0,0,1,1.91-3.21A28.87,28.87,0,0,0,32.35,28.1c0-.32,0-.64,0-1A88.69,88.69,0,0,0,62.9,35.71ZM33.64,20.49l.63.4c8.55,5.2,19,6.57,29,5.38,8.8-1.06,17.25-4,25.4-7.53a28.35,28.35,0,0,1,1.57,6c-25.2,12.71-47,3.73-57.12-2.2C33.25,21.83,33.43,21.15,33.64,20.49Z"/><path class="cls-58" d="M75.56,54.57a25.52,25.52,0,0,1-2.34,1.17A25.52,25.52,0,0,0,75.56,54.57Z"/><path class="cls-59" d="M90,34.79c0,.2-.09.4-.13.61C89.91,35.19,90,35,90,34.79Z"/><path class="cls-60" d="M89.85,35.46c0,.22-.09.43-.15.64C89.76,35.89,89.81,35.68,89.85,35.46Z"/><path class="cls-61" d="M73.11,55.79l-.7.29Z"/><path class="cls-62" d="M50.82,8.62c9.8.57,20,1.08,29.24-1.88a28.91,28.91,0,0,0-6.21-4l.72.35a39.7,39.7,0,0,1-27.1.44c.51-.27,1-.53,1.54-.78A29.41,29.41,0,0,0,42.9,6.66l.64.4C45.72,8.3,48.32,8.47,50.82,8.62Z"/><path class="cls-63" d="M68.83,57.27c-.28.08-.57.15-.85.21C68.26,57.42,68.55,57.35,68.83,57.27Z"/><path class="cls-64" d="M69.66,57l-.68.19Z"/><path class="cls-65" d="M70,1.27q1.19.36,2.31.81Q71.15,1.63,70,1.27Z"/><path class="cls-66" d="M68.41.84,69,1Z"/><path class="cls-67" d="M67.59.65l.62.14Z"/><path class="cls-68" d="M70.55,56.77l-.7.22Z"/><path class="cls-69" d="M66.63.46l.79.16Z"/><path class="cls-70" d="M69.2,1.05l.64.18Z"/><path class="cls-71" d="M72.35,2.11l.66.28Z"/><path class="cls-72" d="M62.58,58.2h0Z"/><path class="cls-73" d="M53.06,57l-.15,0Z"/><path class="cls-74" d="M53.82,57.21l-.2-.05Z"/><path class="cls-75" d="M69,57.23l-.15,0Z"/><path class="cls-76" d="M52.26,56.74h0Z"/><path class="cls-77" d="M63.48,58.15l-.28,0Z"/><path class="cls-78" d="M73.22,55.74l-.11,0Z"/><path class="cls-79" d="M72.41,56.08l-.12.05Z"/><path class="cls-80" d="M54.58,57.41l-.24-.06Z"/><path class="cls-81" d="M57.59,58l-.3,0Z"/><path class="cls-82" d="M68,57.48h0Z"/><path class="cls-83" d="M56.83,57.86l-.29,0Z"/><path class="cls-84" d="M66.3,57.82l-.25,0Z"/><path class="cls-85" d="M64.34,58.08l-.2,0Z"/><path class="cls-86" d="M56.08,57.73l-.28-.06Z"/><path class="cls-87" d="M55.33,57.58l-.27-.06Z"/><path class="cls-88" d="M75.59,54.55h0l0,0Z"/><path class="cls-89" d="M67.15,57.66l-.22,0Z"/><path class="cls-90" d="M69.85,57l-.19,0Z"/><path class="cls-91" d="M60.66,58.21h0Z"/><path class="cls-92" d="M58.35,58.06,58,58Z"/><path class="cls-93" d="M70.66,56.73l-.11,0Z"/><path class="cls-94" d="M59.12,58.13l-.31,0Z"/><path class="cls-95" d="M59.89,58.18l-.3,0Z"/><path class="cls-96" d="M65.35,58l-.15,0Z"/><path class="cls-97" d="M69,54.21c-1.95-.5-3.78-1.4-5.74-1.82-3.63-.77-7.42.13-11.12-.21-4.27-.39-8.23-2.4-12.34-3.62a29.14,29.14,0,0,0,12.42,8.17h0l.65.21.15,0,.56.17.2.05.52.14.24.06.48.11.27.06.47.09.28.06.46.08.29,0,.46.07.3,0L58,58l.31,0,.46,0,.31,0,.47,0,.3,0,.52,0h2.17l.62,0,.28,0,.66,0,.2,0,.86-.1.15,0,.7-.1.25,0,.63-.12.22,0,.82-.17h0c.28-.06.57-.13.85-.21l.15,0,.68-.19.19,0,.7-.22.11,0c.55-.18,1.1-.38,1.63-.6l.12-.05.7-.29.11,0a25.52,25.52,0,0,0,2.34-1.17l0,0A17.68,17.68,0,0,1,69,54.21Z"/><path class="cls-98" d="M90.49,31c0,.12,0,.23,0,.35C90.48,31.18,90.48,31.07,90.49,31Z"/><path class="cls-99" d="M90.55,29.11c0,.25,0,.49,0,.74C90.55,29.6,90.55,29.36,90.55,29.11Z"/><path class="cls-100" d="M90.26,33.23l0,.19Z"/><path class="cls-101" d="M90.43,31.72a2.64,2.64,0,0,1,0,.29A2.64,2.64,0,0,0,90.43,31.72Z"/><path class="cls-102" d="M90.36,32.48l0,.24Z"/><path class="cls-103" d="M90.53,30.14c0,.14,0,.29,0,.44C90.52,30.43,90.53,30.28,90.53,30.14Z"/><path class="cls-104" d="M32.35,30.18c0-.08,0-.16,0-.25C32.34,30,32.35,30.1,32.35,30.18Z"/><path class="cls-105" d="M90,34.68l0,.11Z"/><path class="cls-106" d="M32.54,32.65a1.11,1.11,0,0,0,0-.19A1.11,1.11,0,0,1,32.54,32.65Z"/><path class="cls-107" d="M32.46,31.85a2.29,2.29,0,0,1,0-.25A2.29,2.29,0,0,0,32.46,31.85Z"/><path class="cls-108" d="M89.87,35.4l0,.06Z"/><path class="cls-109" d="M90.15,34l0,.15Z"/><path class="cls-110" d="M32.39,31c0-.09,0-.18,0-.27C32.38,30.85,32.39,30.94,32.39,31Z"/><polygon class="cls-111" points="33.14 35.94 33.14 35.94 33.13 35.93 33.14 35.94"/><path class="cls-112" d="M32.35,28.14v0Z"/><path class="cls-113" d="M90.54,28.47c0,.21,0,.43,0,.64C90.55,28.9,90.55,28.68,90.54,28.47Z"/><path class="cls-114" d="M32.65,33.44v0Z"/><path class="cls-115" d="M89.7,36.1v0Z"/><path class="cls-116" d="M43.19,51.79l.66.51Z"/><path class="cls-117" d="M44.6,52.85l.08.06Z"/><path class="cls-118" d="M43.85,52.3l.08.06Z"/><path class="cls-119" d="M43.93,52.36l.67.49Z"/><path class="cls-120" d="M45.45,53.44c.23.15.46.3.7.44C45.91,53.74,45.68,53.59,45.45,53.44Z"/><path class="cls-121" d="M44.68,52.91l.69.47Z"/><path class="cls-122" d="M46.15,53.88l.09.06Z"/><path class="cls-123" d="M45.37,53.38l.08.06Z"/><path class="cls-124" d="M39.82,48.59c.18.21.37.41.56.61C40.19,49,40,48.8,39.82,48.59Z"/><path class="cls-125" d="M41.1,49.93l.61.58Z"/><path class="cls-126" d="M40.38,49.2l.07.07Z"/><path class="cls-127" d="M46.24,53.94l.71.42Z"/><path class="cls-128" d="M42.47,51.19l.65.54Z"/><path class="cls-129" d="M41.71,50.51l.07.06Z"/><path class="cls-130" d="M42.4,51.13l.07.06Z"/><path class="cls-131" d="M41.78,50.57l.62.56Z"/><path class="cls-132" d="M43.12,51.73l.07.06Z"/><path class="cls-133" d="M47,54.36l.1.06Z"/><path class="cls-134" d="M50.43,56.07l.78.3Z"/><path class="cls-135" d="M51.31,56.41l.9.32Z"/><path class="cls-136" d="M41.1,49.93,41,49.86Z"/><path class="cls-137" d="M50.31,56l.12.06Z"/><path class="cls-138" d="M39.82,48.59l0,0h0Z"/><path class="cls-139" d="M41,49.86l-.58-.59Z"/><path class="cls-140" d="M51.21,56.37l.1,0Z"/><path class="cls-141" d="M47.76,54.81l.11.06Z"/><path class="cls-142" d="M49.56,55.69l.75.32C50.06,55.91,49.81,55.81,49.56,55.69Z"/><path class="cls-143" d="M47.05,54.42l.71.39Z"/><path class="cls-144" d="M47.87,54.87l.73.37Z"/><path class="cls-145" d="M49.44,55.64l.12,0Z"/><path class="cls-146" d="M48.71,55.3l.73.34Z"/><path class="cls-147" d="M48.6,55.24l.11.06Z"/><path class="cls-148" d="M65.65.3l.16,0Z"/><path class="cls-149" d="M64.75.19l.27,0Z"/><path class="cls-150" d="M66.63.46Z"/><path class="cls-151" d="M63.09.05l.3,0Z"/><path class="cls-152" d="M62.26,0h0Z"/><path class="cls-153" d="M63.91.11l.3,0Z"/><path class="cls-154" d="M67.42.62l.17,0Z"/><path class="cls-155" d="M69,1l.19.05Z"/><path class="cls-156" d="M73,2.39l.11,0Z"/><path class="cls-157" d="M73.77,2.73l.08,0Z"/><path class="cls-158" d="M72.27,2.08l.08,0Z"/><path class="cls-159" d="M69.84,1.23l.12,0Z"/><path class="cls-160" d="M60.31,0h0Z"/><path class="cls-161" d="M68.21.79l.2,0Z"/><path class="cls-162" d="M53.13,1.21l.18-.06Z"/><path class="cls-163" d="M51.52,1.74l0,0Z"/><path class="cls-164" d="M52.31,1.46l.17-.05Z"/><path class="cls-165" d="M49.79,2.43l.13-.06Z"/><path class="cls-166" d="M49,2.78l.12,0Z"/><path class="cls-167" d="M54.09.94h0Z"/><path class="cls-168" d="M55.78.55l.24,0Z"/><path class="cls-169" d="M57.67.24h0Z"/><path class="cls-170" d="M55,.73l.16,0Z"/><path class="cls-171" d="M58.56.14l.24,0Z"/><path class="cls-172" d="M56.64.4l.23,0Z"/><path class="cls-173" d="M59.42.07l.29,0Z"/><path class="cls-174" d="M74.57,3.12l-.72-.35-.08,0-.65-.29-.11,0-.66-.28-.08,0Q71.15,1.63,70,1.27l-.12,0-.64-.18L69,1l-.6-.16-.2,0L67.59.65l-.17,0L66.63.46h0L65.81.33l-.16,0L65,.22l-.27,0L64.21.13l-.3,0-.52,0-.3,0-.56,0H60.31l-.6,0-.29,0-.62,0-.24,0-.85.1h0l-.8.12-.23,0L56,.51l-.24,0-.66.14L55,.73l-.84.2h0c-.26.06-.52.14-.78.21l-.18.06-.65.2-.17.05-.74.26,0,0c-.54.19-1.07.4-1.6.63l-.13.06q-.33.13-.66.3l-.12,0c-.52.25-1,.51-1.54.78A39.7,39.7,0,0,0,74.57,3.12Z"/><path class="cls-175" d="M37.43,12.65l0,0Z"/><path class="cls-176" d="M59.89,22.13c6.17-.12,12.2-1.7,18.12-3.45a73.37,73.37,0,0,0,9.14-3.22,28.22,28.22,0,0,0-2.59-4c-19.87,12.16-36.9,6-46.39.19-.25.32-.48.66-.71,1l0,0a28.59,28.59,0,0,0-1.91,3.21C43.1,19.67,51.42,22.29,59.89,22.13Z"/><path class="cls-177" d="M90.21,24.71a28.35,28.35,0,0,0-1.57-6c-8.15,3.53-16.6,6.47-25.4,7.53-9.94,1.19-20.42-.18-29-5.38l-.63-.4c-.21.66-.39,1.34-.55,2C43.21,28.44,65,37.42,90.21,24.71Z"/><path class="cls-178" d="M70.53,11.77a66.88,66.88,0,0,0,7.31-1.27q2.43-.57,4.82-1.32a28.54,28.54,0,0,0-2.6-2.44c-9.25,3-19.44,2.45-29.24,1.88-2.5-.15-5.1-.32-7.28-1.56l-.64-.4c-.67.56-1.33,1.16-1.95,1.78l.31.11A65.84,65.84,0,0,0,70.53,11.77Z"/><path class="cls-179" d="M43.16,36.17l14.34,2C68,39.65,79.19,41,88.84,36.64l.83-.4,0-.11v0c.06-.21.11-.42.15-.64l0-.06c0-.21.09-.41.13-.61l0-.11c0-.19.07-.38.1-.57l0-.15c0-.18.06-.36.08-.54l0-.19c0-.17,0-.34.07-.51l0-.24c0-.15,0-.31,0-.47a2.64,2.64,0,0,0,0-.29c0-.14,0-.28,0-.42s0-.23,0-.35,0-.25,0-.37,0-.3,0-.44,0-.2,0-.29c0-.25,0-.49,0-.74s0-.43,0-.64c0-.6,0-1.19-.09-1.78a44.93,44.93,0,0,0-4.82,3,34.92,34.92,0,0,1-4.1,2.75,26.15,26.15,0,0,1-4.61,1.74A40.19,40.19,0,0,1,70,35.78a34.59,34.59,0,0,1-7.12-.07,88.69,88.69,0,0,1-30.5-8.56c0,.31,0,.63,0,1v0c0,.32,0,.65,0,1s0,.55,0,.82c0,.09,0,.17,0,.25l0,.58c0,.09,0,.18,0,.27s0,.38,0,.57a2.29,2.29,0,0,0,0,.25l.06.61a1.11,1.11,0,0,1,0,.19c0,.16.05.32.07.48a15.18,15.18,0,0,0,3,1.45A36.39,36.39,0,0,0,43.16,36.17Z"/><path class="cls-180" d="M61.57,46.5a211.34,211.34,0,0,1-24.76-1.88,28.69,28.69,0,0,0,3,3.94c4.12,1.22,8.07,3.23,12.34,3.62,3.7.34,7.49-.56,11.12.21,2,.42,3.79,1.32,5.74,1.82a17.68,17.68,0,0,0,6.6.34,29.19,29.19,0,0,0,9.82-8.93A210.81,210.81,0,0,1,61.57,46.5Z"/><path class="cls-181" d="M36.74,39.13a21.35,21.35,0,0,1-3.15-1.54c.16.53.33,1,.52,1.56,1.93.46,4,.88,6.18,1.25C39.09,40,37.9,39.6,36.74,39.13Z"/><path class="cls-182" d="M88.43,40s0,0,0-.06c.24-.6.46-1.2.66-1.82a.88.88,0,0,0,0-.15c.08-.25.16-.5.23-.76l.06-.21c.08-.27.15-.53.22-.8l-.83.4C79.19,41,68,39.65,57.5,38.18l-14.34-2a36.39,36.39,0,0,1-7.54-1.59,15.18,15.18,0,0,1-3-1.45,2.89,2.89,0,0,0,0,.29v0q.2,1.26.48,2.49h0q.2.84.45,1.65a21.35,21.35,0,0,0,3.15,1.54c1.16.47,2.35.89,3.55,1.27a144.89,144.89,0,0,0,21.35,1.87,134.3,134.3,0,0,0,26.65-1.92,2.92,2.92,0,0,1,.14-.31Z"/></g></g></svg>