<svg xmlns="http://www.w3.org/2000/svg" xmlns:xlink="http://www.w3.org/1999/xlink" viewBox="0 0 288.89 155.86"><defs><style>.cls-1{fill:#f2e1e1;}.cls-2{fill:url(#linear-gradient);}.cls-3{fill:#fff;}.cls-4{fill:url(#radial-gradient);}.cls-5{fill:url(#radial-gradient-2);}.cls-6{fill:url(#radial-gradient-3);}.cls-7{fill:url(#radial-gradient-4);}.cls-8{fill:url(#radial-gradient-5);}.cls-9{fill:url(#radial-gradient-6);}.cls-10{fill:url(#radial-gradient-7);}.cls-11{fill:url(#radial-gradient-8);}.cls-12{fill:url(#radial-gradient-9);}</style><linearGradient id="linear-gradient" x1="-346.06" y1="145.69" x2="-38.74" y2="145.69" gradientTransform="translate(217.3 -148.52) rotate(-35.3)" gradientUnits="userSpaceOnUse"><stop offset="0.1" stop-color="#906941"/><stop offset="0.48" stop-color="#bc8b57"/><stop offset="0.62" stop-color="#bf8f5b"/><stop offset="0.75" stop-color="#c89967"/><stop offset="0.88" stop-color="#d8ab7a"/><stop offset="1" stop-color="#ebc192"/></linearGradient><radialGradient id="radial-gradient" cx="-150.5" cy="98.37" r="96.25" gradientTransform="translate(217.3 -148.52) rotate(-35.3)" gradientUnits="userSpaceOnUse"><stop offset="0" stop-color="#c8a17d"/><stop offset="0.83" stop-color="#47392d"/></radialGradient><radialGradient id="radial-gradient-2" cx="-150.5" cy="98.37" r="96.25" gradientTransform="translate(217.3 -148.52) rotate(-35.3)" gradientUnits="userSpaceOnUse"><stop offset="0" stop-color="#c8a17d"/><stop offset="1" stop-color="#5f4c3c"/></radialGradient><radialGradient id="radial-gradient-3" cx="-150.5" cy="98.37" r="96.25" xlink:href="#radial-gradient"/><radialGradient id="radial-gradient-4" cx="-150.5" cy="98.37" r="96.25" xlink:href="#radial-gradient-2"/><radialGradient id="radial-gradient-5" cx="-150.61" cy="99.91" r="94.96" xlink:href="#radial-gradient-2"/><radialGradient id="radial-gradient-6" cx="-150.54" cy="98.49" r="96.07" xlink:href="#radial-gradient"/><radialGradient id="radial-gradient-7" cx="-150.5" cy="98.37" r="96.25" xlink:href="#radial-gradient-2"/><radialGradient id="radial-gradient-8" cx="-150.54" cy="98.37" r="96.27" xlink:href="#radial-gradient-2"/><radialGradient id="radial-gradient-9" cx="-150.5" cy="98.35" r="96.27" xlink:href="#radial-gradient"/></defs><g id="Слой_2" data-name="Слой 2"><g id="Слой_1-2" data-name="Слой 1"><path class="cls-1" d="M129,46.21C53.55,79.35,3.59,117.82,12.7,138.57s71.25,10,146.72-23.14S284.85,43.82,275.73,23.07,204.49,13.07,129,46.21Zm29.87,68c-69.22,30.39-133.15,37.23-140,21.63S60.33,77.81,129.55,47.42s133.15-37.24,140-21.64S228.11,83.83,158.89,114.23Z"/><path class="cls-1" d="M216.82,59.54c-7,9.6-18.25,15-29.1,19.81-6.23,2.77-12.49,5.47-18.93,7.7-15.54,5.39-32.25,8.09-46.34,16.57-1.43.86-2.89,1.86-3.4,3.52a2.77,2.77,0,0,0,.51,2.7c1,1,2.35.8,3.59.54l9.94-2.09c2.3-.48,4.74-1,6.95-.17l.07,0a3.8,3.8,0,0,1,.17,7c-8.76,4.16-19,4.89-28.16,8.19-5.87,2.11-11.29,5.23-16.79,8.19,18.07-4,39.32-11.09,61.91-21C183.63,98.88,205.91,86,221.91,73.78A76.44,76.44,0,0,0,219,56,24.48,24.48,0,0,1,216.82,59.54Z"/><path class="cls-2" d="M127.13,42.12C47.94,76.9-8.51,122.74,1.06,144.52S82.57,155.76,161.76,121,297.4,40.37,287.83,18.59,206.32,7.35,127.13,42.12Zm30.59,68.75C98.18,137,47.67,143.58,40.48,127.21s31.41-49.16,91-75.3,109.79-32.38,117-16S217.25,84.73,157.72,110.87Z"/><path class="cls-3" d="M129.92,46.28C54.45,79.42,4.49,117.89,13.6,138.64s71.25,10,146.72-23.14S285.75,43.9,276.63,23.14,205.39,13.14,129.92,46.28Zm29.87,68c-69.22,30.39-133.15,37.23-140,21.63S61.23,77.88,130.45,47.49s133.15-37.24,140-21.63S229,83.9,159.79,114.3Z"/><path class="cls-4" d="M146.69,33.46a20.29,20.29,0,0,0-4.14,2.68A2.88,2.88,0,0,0,145.61,41a80.68,80.68,0,0,1,23-7.29,2.87,2.87,0,0,1,3,4.27c-2.19,3.64-6.27,6.33-10.39,7.81-5.8,2.06-12.11,2.55-17.75,5-6.36,2.76-11.44,7.81-17.54,11.11-5.28,2.85-11.16,4.31-16.91,6-14,4.16-27.52,9.9-40.84,16a77.59,77.59,0,0,0,6.28,24.77c.16.36.32.7.48,1a121.91,121.91,0,0,0,36.23-15.21c-.32-2.32-2.57-4-4.87-4.41a18.88,18.88,0,0,0-7,.52,111.07,111.07,0,0,1-12.05,1.63c-2,.16-4,.26-6.07.31-1.4,0-3.62.19-4.74-.8a2.24,2.24,0,0,1-.55-.75,1.47,1.47,0,0,1-.1-.92,1.9,1.9,0,0,1,.87-1c2.07-1.37,4.78-1.71,7.19-2.12,2.57-.44,5.17-.73,7.76-1,5.17-.57,10.4-1.13,15.32-2.88l.14-.05c4.41-1.6,8.42-4.12,12.47-6.5,5.88-3.47,12-6.72,18.76-7.93s13.41-.33,20.12-.69,13.88-2.24,18.06-7.5c0-3.25-4.64-4.15-7.68-3s-6.2,3.3-9.25,2.18c-1.16-1.19-.76-3.29.4-4.48a9.22,9.22,0,0,1,4.45-2.08c9.22-2.34,18.92-3.51,27.29-8,6.18-3.34,11.48-8.42,17.93-11a77.14,77.14,0,0,0-13.27-15l-.73,0C178.44,18.17,162.14,25.91,146.69,33.46Z"/><path class="cls-5" d="M152.48,22A768,768,0,0,1,71.36,54.62a77.39,77.39,0,0,0-3.23,29.29c13.32-6.12,26.8-11.86,40.84-16,5.75-1.71,11.63-3.17,16.91-6,6.1-3.3,11.18-8.35,17.54-11.11,5.64-2.46,12-2.95,17.75-5,4.12-1.48,8.2-4.17,10.39-7.81a2.87,2.87,0,0,0-3-4.27,80.68,80.68,0,0,0-23,7.29,2.88,2.88,0,0,1-3.06-4.82,20.29,20.29,0,0,1,4.14-2.68c15.45-7.55,31.75-15.29,48.92-14.45l.73,0a77.7,77.7,0,0,0-13-9.14C172.73,12.36,162.43,17.34,152.48,22Z"/><path class="cls-6" d="M158.85,1.18A124.33,124.33,0,0,1,147.33,7.7a305.47,305.47,0,0,1-64.44,24A77.63,77.63,0,0,0,71.36,54.62,768,768,0,0,0,152.48,22c10-4.67,20.25-9.65,30.86-12.1A78.14,78.14,0,0,0,158.85,1.18Z"/><path class="cls-7" d="M147.33,7.7a124.33,124.33,0,0,0,11.52-6.52,77.58,77.58,0,0,0-76,30.53A305.47,305.47,0,0,0,147.33,7.7Z"/><path class="cls-8" d="M167.55,126a3.35,3.35,0,0,0,1.59-2c.22-1.59-1.79-2.56-3.39-2.45s-3.25.75-4.76.2a3.64,3.64,0,0,1-.65-.34,526.68,526.68,0,0,1-56.89,21.36c1.45.94,2.59,1.62,4.1,2.46C129,144.17,150.3,138.54,167.55,126Z"/><path class="cls-9" d="M217.8,59.72c-7,9.6-18.25,15-29.1,19.82-6.23,2.76-12.49,5.47-18.93,7.7-15.54,5.38-32.25,8.08-46.34,16.57-1.42.86-2.89,1.85-3.4,3.51a2.77,2.77,0,0,0,.51,2.7c1,1,2.35.8,3.59.54l9.94-2.09c2.3-.48,4.74-1,7-.17l.07,0a3.79,3.79,0,0,1,.17,7c-8.76,4.17-18.95,4.89-28.16,8.19-5.87,2.11-11.22,5.61-16.72,8.56,18.07-4,39.25-11.46,61.84-21.38,26.4-11.59,48.67-24.59,64.67-36.78A76.56,76.56,0,0,0,220,56.21,25.37,25.37,0,0,1,217.8,59.72Z"/><path class="cls-10" d="M185,114.44c8.27-.56,14.71-7.12,20.3-13.25l3.25-3.57c-9.78,5.46-20.22,10.85-31.2,16A28.39,28.39,0,0,0,185,114.44Z"/><path class="cls-11" d="M113.1,123.47c9.21-3.3,19.4-4,28.16-8.19a3.79,3.79,0,0,0-.17-7l-.07,0c-2.21-.78-4.65-.31-7,.17l-9.94,2.09c-1.24.26-2.63.5-3.59-.54a2.77,2.77,0,0,1-.51-2.7c.51-1.66,2-2.65,3.4-3.51,14.09-8.49,30.8-11.19,46.34-16.57,6.44-2.23,12.7-4.94,18.93-7.7,10.85-4.82,22.1-10.22,29.1-19.82A25.37,25.37,0,0,0,220,56.21a79,79,0,0,0-3.53-9.78A78.14,78.14,0,0,0,209.61,34c-6.45,2.6-11.75,7.68-17.93,11-8.37,4.52-18.07,5.69-27.29,8a9.22,9.22,0,0,0-4.45,2.08c-1.16,1.19-1.56,3.29-.4,4.48,3.05,1.12,6.21-1,9.25-2.18s7.72-.26,7.68,3c-4.18,5.26-11.35,7.15-18.06,7.5s-13.51-.5-20.12.69-12.88,4.46-18.76,7.93c-4,2.38-8.06,4.9-12.47,6.5l-.14.05C102,84.87,96.77,85.43,91.6,86c-2.59.28-5.19.57-7.76,1-2.41.41-5.12.75-7.19,2.12a1.9,1.9,0,0,0-.87,1,1.47,1.47,0,0,0,.1.92,2.24,2.24,0,0,0,.55.75c1.12,1,3.34.84,4.74.8,2,0,4-.15,6.07-.31a111.07,111.07,0,0,0,12.05-1.63,18.88,18.88,0,0,1,7-.52c2.3.44,4.55,2.09,4.87,4.41a121.91,121.91,0,0,1-36.23,15.21,78,78,0,0,0,16,23.3c1.74-.34,3.78-.61,5.59-1C102,129.06,107.23,125.58,113.1,123.47Z"/><path class="cls-12" d="M205.32,101.19c-5.59,6.13-12,12.69-20.3,13.25a28.39,28.39,0,0,1-7.65-.78q-7.27,3.45-14.85,6.78l-2.18,1a3.64,3.64,0,0,0,.65.34c1.51.55,3.16-.09,4.76-.2s3.61.86,3.39,2.45a3.35,3.35,0,0,1-1.59,2c-17.25,12.55-38.54,18.18-60,19.22A77.6,77.6,0,0,0,222,89.92c-4.31,2.6-8.83,5.13-13.46,7.7Z"/></g></g></svg>