<svg xmlns="http://www.w3.org/2000/svg" xmlns:xlink="http://www.w3.org/1999/xlink" viewBox="0 0 89.54 95.45"><defs><style>.cls-1{fill:#fce433;}.cls-2{fill:url(#linear-gradient);}</style><linearGradient id="linear-gradient" x1="64.53" y1="91.45" x2="143.43" y2="132.72" gradientTransform="translate(-79.67 -0.66) rotate(-28.86)" gradientUnits="userSpaceOnUse"><stop offset="0.01" stop-color="#fdab54"/><stop offset="0.68" stop-color="#ffe02b"/></linearGradient></defs><g id="Слой_2" data-name="Слой 2"><g id="Слой_1-2" data-name="Слой 1"><path class="cls-1" d="M36.05,63.15C21.69,46.21,23.36,21,39.79,6.76A27.7,27.7,0,0,1,51.37.29C38.26.43,28.29,1.27,18.19,10-1.4,26.94-3.39,57.05,13.73,77.24S58.48,100,78.07,83c4.92-4.26,8.79-8.09,11.47-13.64C73.11,83.42,50.36,80,36.05,63.15Z"/><path class="cls-2" d="M34,64.3C19.6,47.36,21.27,22.12,37.7,7.91A38.4,38.4,0,0,1,51.37.29,45.83,45.83,0,0,0,16.11,11.15C-3.49,28.09-5.48,58.2,11.65,78.39s46.89,22.83,66.48,5.89A46.14,46.14,0,0,0,89.54,69.39C73.11,83.42,48.28,81.17,34,64.3Z"/></g></g></svg>